<svg xmlns="http://www.w3.org/2000/svg" version="1.1" xmlns:xlink="http://www.w3.org/1999/xlink" xmlns:svgjs="http://svgjs.dev/svgjs" width="100%" height="100%" viewBox="0 0 1000 600"><rect width="1000" height="600" x="0" y="0" fill="#1d1b28"/><g><circle r="166.66666666666666" cx="426.6209513346354" cy="448.8432588696131" fill="#304156" transform="matrix(0.4808535526225889,0,0,0.48085355262258894,0,84.17209936006651)"/><path d="M353.2145047163941 444.6451837418422L353.2145047163941 444.6451837418422Q349.5133395734711 443.65135236087207 344.818343049578 440.5670480751029Q340.1233465256849 437.4827437893337 336.69634176371915 432.68493712258163Q333.2350669541337 427.88713045582955 333.2350669541337 421.9584122176288L333.2350669541337 421.9584122176288Q333.2350669541337 419.25107845567584 334.2288983351038 416.50947464610323L334.2288983351038 416.50947464610323Q334.2288983351038 416.2695843127656 334.33170847796276 414.7959722651203Q334.4687886684414 413.322360217475 334.708679001779 412.328528836505L334.708679001779 412.328528836505Q337.41601276373194 399.9913116934282 347.28578647819336 391.97212055042826Q357.1555601926548 383.95292940742837 371.4804400976717 379.4978232168729Q385.771049955069 375.07698707393706 401.32965157439355 374.083155692967L401.32965157439355 374.083155692967Q404.2768756696841 373.8432653596294 407.2583698125943 373.8432653596294Q410.20559390788486 373.8432653596294 413.18708805079507 373.8432653596294L413.18708805079507 373.8432653596294Q430.4591920511026 373.8432653596294 447.4571356704528 376.0708184549071Q464.4893493374227 378.2641015025652 478.43725871862335 380.388844454984Q492.385168099824 382.47931735978307 500.5071693856829 382.7192076931207L500.5071693856829 382.7192076931207Q507.4297190048537 375.55676774061226 510.6511034811016 374.83709674059946L510.6511034811016 374.83709674059946Q511.3707744811144 374.5629363596422 512.8443865287597 374.5629363596422L512.8443865287597 374.5629363596422Q515.5859903383323 374.5629363596422 517.7792733859903 375.9337382644285Q520.006826481268 377.3045401692148 520.006826481268 379.7719835978302L520.006826481268 379.7719835978302Q520.006826481268 381.9652666454882 518.0534337669476 383.95292940742837L518.0534337669476 383.95292940742837Q516.3056613383451 385.6664317884113 512.604496195422 388.1338752170266Q508.90333105249897 390.601318645642 505.4420562429136 394.30248378856504L505.4420562429136 394.30248378856504Q500.5071693856829 399.23737064579575 496.56611390942226 405.4059792173341Q492.6250584331616 411.5745877888725 492.6250584331616 417.2634156937357L492.6250584331616 417.2634156937357Q492.6250584331616 421.44436150333394 494.6127211951018 424.42585564624414L494.6127211951018 424.42585564624414Q495.092501861777 424.90563631291934 495.092501861777 425.4196870272142L495.092501861777 425.4196870272142Q495.092501861777 427.3730797415347 493.10483909983685 427.3730797415347L493.10483909983685 427.3730797415347Q491.39133671885395 427.3730797415347 489.40367395691385 425.4196870272142L489.40367395691385 425.4196870272142Q487.4502812425933 422.95224359859884 487.4502812425933 414.7959722651203L487.4502812425933 414.7959722651203Q487.4502812425933 409.8610854078896 488.44411262356334 404.17225750302646Q489.40367395691385 398.5176996457829 491.87111738552915 393.82270312188984L491.87111738552915 393.82270312188984Q492.8649487664992 392.1092007409069 494.7155313379608 389.74456745515056Q496.56611390942226 387.41420421701383 497.5599452903923 386.1804825027061L497.5599452903923 386.1804825027061Q479.8080606234097 385.94059216936853 461.5421252421321 384.192819740766Q443.2761898608546 382.47931735978307 425.5243051938719 382.47931735978307L425.5243051938719 382.47931735978307Q417.1281435270557 382.47931735978307 406.74431909829946 383.57595888361215Q396.39476471716284 384.7068704550609 385.5311596217314 387.17431388367623Q374.66755452629985 389.6417573122916 365.31183152613335 394.19967364570607Q355.9218384783471 398.7575899791205 349.2734492401335 405.4059792173341Q342.59078995430025 412.0886385031674 340.6373972399798 421.44436150333394L340.6373972399798 421.44436150333394Q340.3975069066422 422.438192884304 340.2604267161636 423.19213393193644Q340.1233465256849 423.91180493194923 340.1233465256849 424.66574597958174L340.1233465256849 424.66574597958174Q340.1233465256849 429.36074250347485 342.9677604781165 432.547856932103Q345.8121744305481 435.7692414083508 349.5133395734711 437.85971431314994Q353.2145047163941 439.95018721794906 355.20216747833433 441.6979596465516L355.20216747833433 441.6979596465516Q356.9156698593172 442.6917910275217 356.9156698593172 443.65135236087207L356.9156698593172 443.65135236087207Q356.9156698593172 444.6451837418422 355.81902833548816 444.8850740751798Q354.6881167640394 445.159234456137 353.2145047163941 444.6451837418422ZM377.64904866921006 523.8432637908711L377.64904866921006 523.8432637908711Q376.8951076215776 523.8432637908711 374.66755452629985 523.3634831241959Q372.47427147864175 522.8837024575207 370.48660871670165 522.1297614098883Q368.49894595476144 521.3758203622558 368.25905562142384 520.4162590289054L368.25905562142384 520.4162590289054Q367.53938462141105 515.7212625050122 370.6236889071803 506.94813031437985Q373.70799319294946 498.2092681713671 378.74569019303914 487.58555340927325Q383.8176572407485 476.9618386471794 389.369404955133 466.37239393270517Q394.92115266951754 455.74867917061124 399.61614919341065 447.24970736093616Q404.2768756696841 438.71646550364136 406.50442876496186 434.29562936070556L406.50442876496186 434.29562936070556Q408.492091526902 430.08041350348765 408.492091526902 427.3730797415347L408.492091526902 427.3730797415347Q408.492091526902 426.139358027227 408.3550113364234 425.52249717007317Q408.25220119356436 424.90563631291934 407.9780408126071 424.42585564624414L407.9780408126071 424.42585564624414Q408.492091526902 421.44436150333394 411.67920595553016 416.50947464610323Q414.900590431778 411.5745877888725 419.5955869556711 406.6397009316418Q424.2905834795642 401.70481407441105 429.5681708129915 398.38061945530427Q434.8800281940384 395.0564248361975 439.8149150512691 395.0564248361975L439.8149150512691 395.0564248361975Q441.2885270989144 395.0564248361975 444.9896922418374 396.1530663600265Q448.6908573847605 397.2839779314752 451.6723515276707 399.7514213600906Q454.61957562296124 402.21886478870596 454.13979495628604 406.15992026496656L454.13979495628604 406.15992026496656Q452.3920225276835 404.9261985506589 451.15830081337583 404.9261985506589L451.15830081337583 404.9261985506589Q445.5037429561323 404.9261985506589 438.82108367029906 410.3408660745648Q432.17269443208545 415.7898036460904 425.1473346700556 424.90563631291934Q418.12197490802583 434.0557390273679 411.3365054793336 444.8850740751798Q404.55103605064136 455.74867917061124 398.6223178124406 466.7493644565214Q392.6935995742398 477.71577969481183 388.2384933836843 486.9686925521194Q383.8176572407485 496.221605409427 381.3502138121331 501.9104333142902L381.3502138121331 501.9104333142902Q380.35638243116307 504.3778767429055 379.8766017644878 506.331269457226Q379.36255105019296 508.31893221916613 379.36255105019296 509.5526539334739L379.36255105019296 509.5526539334739Q379.36255105019296 513.0139287430593 381.8299944788083 513.0139287430593L381.8299944788083 513.0139287430593Q383.5777669074109 513.0139287430593 385.5311596217314 511.64312683827296Q387.5188223836715 510.27232493348663 389.2323247646544 508.31893221916613L389.2323247646544 508.31893221916613Q391.93965852660733 505.0975477429183 394.1672116218851 502.25313379048674Q396.39476471716284 499.4429898856748 398.1082670981457 499.92277055235L398.1082670981457 499.92277055235Q398.382427479103 500.1626608856876 398.382427479103 500.6767115999825L398.382427479103 500.6767115999825Q398.382427479103 502.1503236476278 396.87454538383804 504.1037163619483Q395.4009333361928 506.09137912388843 395.1610430028552 506.331269457226L395.1610430028552 506.331269457226Q393.17338024091504 508.7987128858413 390.3632363361031 513.0139287430593Q387.5188223836715 517.1948745526574 384.29743790742367 520.5190691717644Q381.1103234787955 523.8432637908711 377.64904866921006 523.8432637908711Z " fill="#ffffff" transform="matrix(0.4808535526225889,0,0,0.48085355262258894,0,84.17209936006651)"/><path d="M695.9000483660566 447.4213081846979L695.9000483660566 447.4213081846979Q692.3286195423332 446.4623134079574 687.7981959418692 443.48612272152127Q683.2677723414054 440.5099320350851 679.9608938009208 435.88030207840666Q676.6209464750312 431.2506721217282 676.6209464750312 425.5297722466898L676.6209464750312 425.5297722466898Q676.6209464750312 422.917338199707 677.5799412517717 420.2718353673193L677.5799412517717 420.2718353673193Q677.5799412517717 420.0403538694854 677.6791476079864 418.618396097077Q677.8114227496058 417.1964383246686 678.0429042474397 416.2374435479281L678.0429042474397 416.2374435479281Q680.6553382944224 404.3326808021834 690.1791484910182 396.59458501744945Q699.7029586876138 388.8564892327155 713.5257109868395 384.5575471300855Q727.3153945006604 380.2916738128603 742.3286230744604 379.33267903611977L742.3286230744604 379.33267903611977Q745.1725386192772 379.1011975382859 748.0495229494989 379.1011975382859Q750.8934384943157 379.1011975382859 753.7704228245373 379.1011975382859L753.7704228245373 379.1011975382859Q770.4370906685797 379.1011975382859 786.8392082293833 381.2506685896009Q803.2743945755919 383.367070855511 816.7333902353643 385.4173355506115Q830.1923858951367 387.4345314603071 838.0296880360852 387.666012958141L838.0296880360852 387.666012958141Q844.7095826878641 380.7546368085282 847.8180485159196 380.06019231502637L847.8180485159196 380.06019231502637Q848.5124930094214 379.7956420317876 849.9344507818298 379.7956420317876L849.9344507818298 379.7956420317876Q852.5799536142175 379.7956420317876 854.6963558801276 381.1183934479815Q856.8458269314426 382.4411448641753 856.8458269314426 384.82209741332423L856.8458269314426 384.82209741332423Q856.8458269314426 386.9384996792344 854.9609061633664 388.8564892327155L854.9609061633664 388.8564892327155Q853.2743981077192 390.5099285029578 849.7029692839959 392.8908810521067Q846.1315404602725 395.2718336012556 842.791593134383 398.843262424979L842.791593134383 398.843262424979Q838.0296880360852 403.6051675232768 834.2267777145279 409.55754889614917Q830.4238673929706 415.5099302690214 830.4238673929706 420.9993486462259L830.4238673929706 420.9993486462259Q830.4238673929706 425.03374046561714 832.3418569464517 427.91072479583875L832.3418569464517 427.91072479583875Q832.8048199421195 428.3736877915066 832.8048199421195 428.8697195725793L832.8048199421195 428.8697195725793Q832.8048199421195 430.7546403406555 830.8868303886384 430.7546403406555L830.8868303886384 430.7546403406555Q829.2333911183961 430.7546403406555 827.3154015649151 428.8697195725793L827.3154015649151 428.8697195725793Q825.4304807968388 426.48876702343034 825.4304807968388 418.618396097077L825.4304807968388 418.618396097077Q825.4304807968388 413.8564909987791 826.3894755735794 408.36707262157466Q827.3154015649151 402.91072302977506 829.696354114064 398.38029942931115L829.696354114064 398.38029942931115Q830.6553488908045 396.72686015906885 832.4410633026662 394.4451139661345Q834.2267777145279 392.19643655860494 835.1857724912684 391.0059602840305L835.1857724912684 391.0059602840305Q818.0561416515582 390.77447878619654 800.4304790307751 389.0879707305494Q782.8048164099921 387.4345314603071 765.6751855702819 387.4345314603071L765.6751855702819 387.4345314603071Q757.5733331460946 387.4345314603071 747.5534911684263 388.49273259326213Q737.5667179761626 389.5840025116221 727.0839130028264 391.964955060771Q716.6011080294902 394.3459076099199 707.5733296139672 398.74405606876445Q698.5124824130394 403.142204527609 692.0971380444992 409.55754889614917Q685.6487248905543 416.0059620500941 683.763804122478 425.03374046561714L683.763804122478 425.03374046561714Q683.5323226246442 425.9927352423577 683.4000474830248 426.7202485212643Q683.2677723414054 427.41469301476604 683.2677723414054 428.14220629367264L683.2677723414054 428.14220629367264Q683.2677723414054 432.6726298941366 686.0124815300076 435.74802693678726Q688.7571907186098 438.8564927648428 692.3286195423332 440.8736886745384Q695.9000483660566 442.890884584234 697.8180379195376 444.5773926398812L697.8180379195376 444.5773926398812Q699.47147718978 445.5363874166217 699.47147718978 446.4623134079574L699.47147718978 446.4623134079574Q699.47147718978 447.4213081846979 698.4132760568248 447.6527896825319Q697.322006138465 447.9173399657706 695.9000483660566 447.4213081846979ZM719.4780923597118 523.8432712552974L719.4780923597118 523.8432712552974Q718.7505790808052 523.8432712552974 716.6011080294902 523.3803082596296Q714.48470576358 522.9173452639616 712.566716210099 522.189831985055Q710.6487266566179 521.4623187061484 710.417245158784 520.5363927148128L710.417245158784 520.5363927148128Q709.7228006652822 516.0059691143488 712.6989913517184 507.5403600507082Q715.6751820381545 499.10781977247245 720.5362934926669 488.8564962969702Q725.4304737325841 478.6051728214679 730.7876169681692 468.3869181313704Q736.1447602037542 458.1355946558681 740.6751838042182 449.9345358754663Q745.1725386192772 441.70040830965957 747.3220096705923 437.4345349924344L747.3220096705923 437.4345349924344Q749.2399992240734 433.36707438763835 749.2399992240734 430.7546403406555L749.2399992240734 430.7546403406555Q749.2399992240734 429.56416406608105 749.107724082454 428.9689259287938Q749.0085177262395 428.3736877915066 748.7439674430007 427.91072479583875L748.7439674430007 427.91072479583875Q749.2399992240734 425.03374046561714 752.3153962667241 420.2718353673193Q755.4238620947796 415.5099302690214 759.9542856952435 410.7480251707236Q764.4847092957074 405.98612007242576 769.5773022480537 402.7784478881557Q774.7029639858049 399.5707757038856 779.4648690841027 399.5707757038856L779.4648690841027 399.5707757038856Q780.8868268565111 399.5707757038856 784.4582556802345 400.6289768368407Q788.0296845039578 401.7202467552006 790.9066688341795 404.1011993043495Q793.7505843789962 406.48215185349846 793.2876213833283 410.28506217505577L793.2876213833283 410.28506217505577Q791.6011133276812 409.0945859004813 790.4106370531068 409.0945859004813L790.4106370531068 409.0945859004813Q784.9542874613071 409.0945859004813 778.5058743073622 414.319453994447Q772.090529938822 419.57739087381754 765.3114289308286 428.3736877915066Q758.5323279228351 437.2030534946005 751.9847084126756 447.6527896825319Q745.437088902516 458.1355946558681 739.7161890274776 468.7506747708237Q733.9952891524392 479.3326861003745 729.6963470498092 488.26125815968294Q725.4304737325841 497.1898302189914 723.0495211834352 502.6792485961958L723.0495211834352 502.6792485961958Q722.0905264066946 505.06020114534476 721.6275634110268 506.945121913421Q721.1315316299541 508.863111466902 721.1315316299541 510.0535877414765L721.1315316299541 510.0535877414765Q721.1315316299541 513.393535067366 723.512484179103 513.393535067366L723.512484179103 513.393535067366Q725.1989922347502 513.393535067366 727.0839130028264 512.0707836511722Q729.0019025563075 510.74803223497827 730.6553418265498 508.863111466902L730.6553418265498 508.863111466902Q733.2677758735326 505.7546456388465 735.4172469248476 503.0099364502443Q737.5667179761626 500.2982960470469 739.2201572464049 500.76125904271476L739.2201572464049 500.76125904271476Q739.4847075296437 500.9927405405487 739.4847075296437 501.4887723216214L739.4847075296437 501.4887723216214Q739.4847075296437 502.91073009402976 738.0296809718304 504.795650862106Q736.6077231994221 506.71364041558707 736.3762417015882 506.945121913421L736.3762417015882 506.945121913421Q734.4582521481071 509.3260744625699 731.7466117449097 513.393535067366Q729.0019025563075 517.4279268867572 725.893436728252 520.6355990710273Q722.8180396856012 523.8432712552974 719.4780923597118 523.8432712552974ZM795.4370924346433 520.271842431574L795.4370924346433 520.271842431574Q791.3696318298473 520.271842431574 788.2942347871966 518.4861280197123Q785.1857689591411 516.7004136078506 783.9952926845666 511.7070270117188L783.9952926845666 511.7070270117188Q783.26777940566 509.09459296473597 783.26777940566 506.4821589177531L783.26777940566 506.4821589177531Q783.26777940566 499.3393012703064 786.9714833710028 492.56020026231295Q790.6751873363455 485.74803046891464 795.6685739324773 479.92792423766167Q800.661960528609 474.10781800640876 804.2333893523324 470.0403574016127L804.2333893523324 470.0403574016127Q806.1513789058135 468.15543663353645 808.6315378111769 465.04697080548095Q811.1447655019452 461.9385049774254 811.1447655019452 458.86310793477475L811.1447655019452 458.86310793477475Q811.1447655019452 456.94511838129364 809.2267759484643 455.15940396943193Q807.3418551803879 453.37368955757023 802.3153997988513 452.6792450640685L802.3153997988513 452.6792450640685Q799.4714842540346 452.1832132829958 796.9582565632663 451.8194566435425Q794.4780976579028 451.48876878949403 791.86566361092 451.48876878949403L791.86566361092 451.48876878949403Q785.1857689591411 460.51654720501705 778.8696309468155 469.6766007621594Q772.5534929344899 478.8697231047066 765.4106352870431 487.6660200223957L765.4106352870431 487.6660200223957Q763.7571960168008 489.319459292638 762.5667197422263 489.319459292638L762.5667197422263 489.319459292638Q761.144761969818 489.319459292638 761.144761969818 487.89750152022964L761.144761969818 487.89750152022964Q761.144761969818 486.47554374782123 762.5667197422263 485.0535859754129L762.5667197422263 485.0535859754129Q775.4304772647115 469.34591290811096 784.7228059634732 451.48876878949403L784.7228059634732 451.48876878949403Q783.5323296888988 451.48876878949403 781.1513771397499 451.35649364787463Q778.7704245906009 451.2242185062552 777.3153980327877 450.99273700842133L777.3153980327877 450.99273700842133Q775.6619587625454 450.5297740127535 774.7029639858049 449.5707792360129Q773.7439692090643 448.6117844592724 773.7439692090643 447.6527896825319L773.7439692090643 447.6527896825319Q773.7439692090643 446.2308319101235 774.9344454836388 445.9993504122896L774.9344454836388 445.9993504122896Q778.0429113116943 445.040355635549 781.6143401354177 443.1554348674728Q785.1857689591411 441.2374453139917 788.2942347871966 438.1289794859362L788.2942347871966 438.1289794859362Q791.6011133276812 434.8221009454516 794.4780976579028 431.1183969801088Q797.3220132027196 427.41469301476604 799.0085212583667 425.5297722466898L799.0085212583667 425.5297722466898Q800.661960528609 424.33929597211534 802.5799500820901 424.33929597211534L802.5799500820901 424.33929597211534Q803.7704263566646 424.33929597211534 804.8286274896197 425.03374046561714Q805.8868286225747 425.76125374452374 805.8868286225747 427.18321151693215L805.8868286225747 427.18321151693215Q805.8868286225747 428.8697195725793 804.4648708501663 431.48215361956215L804.4648708501663 431.48215361956215Q802.3153997988513 434.8221009454516 799.8352408934879 438.8564927648428Q797.3220132027196 442.890884584234 795.1725421514046 446.2308319101235L795.1725421514046 446.2308319101235Q799.4714842540346 446.4623134079574 803.7704263566646 446.7268636911962Q808.0362996738897 446.9583451890301 812.5667232743536 446.9583451890301L812.5667232743536 446.9583451890301Q814.9476758235025 446.9583451890301 817.1963532310322 446.8260700474107Q819.4780994239666 446.7268636911962 821.8590519731155 446.7268636911962L821.8590519731155 446.7268636911962Q829.0019096205622 446.7268636911962 829.0019096205622 450.2982925149196L829.0019096205622 450.2982925149196Q829.0019096205622 452.6792450640685 826.4886819297939 456.1183987461725Q824.0085230244304 459.5575524282765 820.4370942007071 463.62501303307255L820.4370942007071 463.62501303307255Q812.3352417765198 472.9173417318343 806.6143419014813 483.1355964219318Q800.8934420264429 493.3869198974341 799.0085212583667 498.8432694892337L799.0085212583667 498.8432694892337Q797.0905317048857 504.56416936427206 797.0905317048857 507.44115369449366L797.0905317048857 507.44115369449366Q797.0905317048857 513.1289847841272 801.6209553053496 513.1289847841272L801.6209553053496 513.1289847841272Q805.6553471247408 513.1289847841272 811.5085221413985 509.09459296473597Q817.3286283726516 505.06020114534476 823.5124912433578 499.207026128687Q829.696354114064 493.3869198974341 834.7228094956006 487.7982951640151Q839.7161960917324 482.1766016451913 841.8656671430473 479.3326861003745L841.8656671430473 479.3326861003745Q842.3286301387152 478.6051728214679 843.2876249154557 478.6051728214679L843.2876249154557 478.6051728214679Q844.2466196921963 478.6051728214679 844.941064185698 479.4649612419939Q845.6685774646046 480.29168087711497 844.941064185698 481.4821571516895L844.941064185698 481.4821571516895Q842.3286301387152 485.5165489710807 837.3352435425834 491.6012054855724Q832.3418569464517 497.6527932146592 826.1249252903406 503.6051745875315Q819.9410624196344 509.5575559604038 813.988681046762 513.8564980630338L813.988681046762 513.8564980630338Q810.9132840041113 516.2374506121828 805.5561407685263 518.2546465218784Q800.1989975329412 520.271842431574 795.4370924346433 520.271842431574ZM902.3154068631061 519.8088794359062L902.3154068631061 519.8088794359062Q898.0495335458809 519.8088794359062 894.7095862199915 517.890889882425Q891.369638894102 516.0059691143488 889.7161996238597 510.74803223497827L889.7161996238597 510.74803223497827Q889.4847181260258 509.5575559604038 889.1209614865725 508.0363918317809Q888.7572048471192 506.4821589177531 888.7572048471192 504.795650862106L888.7572048471192 504.795650862106Q888.7572048471192 499.10781977247245 890.3114377611469 491.9649621250257Q891.8656706751747 484.82210447757893 893.7505914432509 480.0601993792811L893.7505914432509 480.0601993792811Q892.7915966665104 480.7546438727828 890.4106441173615 484.82210447757893Q888.0296915682126 488.8564962969702 884.4582627444892 494.21363953255525Q880.8868339207658 499.5707827681403 876.4886854619212 504.9279260037254Q872.0905370030766 510.2850692393105 866.9648752653255 513.7242229214144Q861.8392135275744 517.1964453889233 856.1513824379408 517.1964453889233L856.1513824379408 517.1964453889233Q852.3154033309787 517.1964453889233 846.9582600953936 515.0469743376084Q841.6011168598086 512.8975032862934 839.2201643106597 509.09459296473597L839.2201643106597 509.09459296473597Q836.8392117615108 505.2916826431787 836.8392117615108 499.5707827681403L836.8392117615108 499.5707827681403Q836.8392117615108 492.65940661852744 839.9476775895663 484.45834783812563Q843.0561434176218 476.2242202723189 847.8180485159196 469.08136262487216L847.8180485159196 469.08136262487216Q849.471487786162 466.70041007572325 851.620958837477 463.39353153523865Q853.7704298887919 460.0535842093492 855.8868321547021 457.5403565185809Q858.0363032060171 455.06019761321744 858.9952979827576 454.79564732997864L858.9952979827576 454.79564732997864Q861.8392135275744 453.86972133864293 865.6751926345365 453.86972133864293L865.6751926345365 453.86972133864293Q869.7095844539277 453.86972133864293 871.6275740074088 454.79564732997864L871.6275740074088 454.79564732997864Q873.2810132776511 455.52316060888523 873.2810132776511 456.4821553856258L873.2810132776511 456.4821553856258Q873.2810132776511 457.67263166020024 871.36302372417 459.5575524282765L871.36302372417 459.5575524282765Q868.7505896771872 461.9385049774254 864.2201660767233 466.70041007572325Q859.7228112616642 471.4623151740211 855.2915940174148 478.1422098258Q850.8934455585703 484.82210447757893 848.0495300137536 492.8908881163614L848.0495300137536 492.8908881163614Q845.6685774646046 499.3393012703064 845.6685774646046 504.1012063686042L845.6685774646046 504.1012063686042Q845.6685774646046 512.4345402906254 852.3154033309787 512.4345402906254L852.3154033309787 512.4345402906254Q858.0363032060171 512.4345402906254 864.484716359962 507.6726351923276Q870.9000607285022 502.91073009402976 876.984717242994 495.9993539444169Q883.0363049720808 489.0879777948041 887.930485211998 482.30887678681063Q892.7915966665104 475.52977577881717 895.4370994988981 471.4623151740211L895.4370994988981 471.4623151740211Q897.818052048047 468.15543663353645 900.7942427344831 462.89749975416595Q903.7704334209193 457.67263166020024 906.6143489657361 452.6792450640685Q909.4582645105528 447.6527896825319 911.1447725662 445.271837133383L911.1447725662 445.271837133383Q912.7982118364423 445.271837133383 916.2704343039511 445.86707527067017Q919.7095879860551 446.4623134079574 922.2228156768234 447.9173399657706Q924.7029745821869 449.339297738179 923.5124983076124 451.48876878949403L923.5124983076124 451.48876878949403Q922.090540535204 453.86972133864293 919.1143498487679 458.86310793477475Q916.1381591623317 463.8564945309065 913.1619684758956 468.98215626865766Q910.1857777894594 474.10781800640876 908.5323385192171 477.18321504905947L908.5323385192171 477.18321504905947Q902.8114386441787 488.12898301806354 901.1249305885317 500.76125904271476L901.1249305885317 500.76125904271476Q900.8934490906977 501.7202538194553 900.8934490906977 502.54697345457646Q900.8934490906977 503.3736930896976 900.8934490906977 504.3326878664381L900.8934490906977 504.3326878664381Q900.8934490906977 513.8564980630338 907.3418622446427 513.8564980630338L907.3418622446427 513.8564980630338Q910.9132910683661 513.8564980630338 916.8656724412383 509.5575559604038Q922.8180538141106 505.2916826431787 929.1011230410314 499.3393012703064Q935.4172610533569 493.3869198974341 940.5429227911081 487.7982951640151Q945.6685845288594 482.1766016451913 947.5535052969356 479.3326861003745L947.5535052969356 479.3326861003745Q948.0495370780084 478.6051728214679 949.0085318547488 478.6051728214679L949.0085318547488 478.6051728214679Q949.9344578460845 478.6051728214679 950.5296959833718 479.3326861003745Q951.124934120659 480.0601993792811 950.4304896271572 481.2506756538556L950.4304896271572 481.2506756538556Q948.2810185758422 485.2850674732468 943.155356838091 491.3697239877385Q938.02969510034 497.4213117168253 931.8458322296336 503.505968231317Q925.6619693589274 509.5575559604038 919.7095879860551 513.8564980630338L919.7095879860551 513.8564980630338Q916.6011221579996 516.2374506121828 911.8392170597017 518.0231650240444Q907.0773119614039 519.8088794359062 902.3154068631061 519.8088794359062ZM940.4106476494887 520.5363927148128L940.4106476494887 520.5363927148128Q938.5257268814125 520.5363927148128 939.2201713749143 518.8498846591656L939.2201713749143 518.8498846591656Q940.1791661516548 517.1964453889233 942.6923938424231 510.4173443809298Q945.1725527477867 503.6051745875315 948.4132937174616 494.3459146741746Q951.6209659017317 485.0535859754129 954.6963629443824 476.4887705555577L954.6963629443824 476.4887705555577Q952.3154103952334 480.0601993792811 949.603769992036 483.3670779197657Q946.8590608034337 486.7070252456552 944.9410712499528 488.8564962969702L944.9410712499528 488.8564962969702Q944.246626756451 489.5840095758768 943.9820764732121 489.5840095758768L943.9820764732121 489.5840095758768Q943.2876319797105 489.5840095758768 943.2876319797105 488.12898301806354L943.2876319797105 488.12898301806354Q943.2876319797105 485.2850674732468 944.7095897521187 482.9041149240979L944.7095897521187 482.9041149240979Q949.7029763482506 476.4887705555577 952.3154103952334 472.78506659021497Q954.9609132276212 469.08136262487216 956.7466276394828 466.105171938436Q958.5323420513446 463.12898125199985 960.4172628194208 459.32607093044254L960.4172628194208 459.32607093044254Q960.9132946004934 456.71363688345974 962.2029772312824 452.91072656190244Q963.5257286474762 449.10781624034513 968.519115243608 449.10781624034513L968.519115243608 449.10781624034513Q975.8934543888887 449.10781624034513 975.8934543888887 452.1832132829958L975.8934543888887 452.1832132829958Q975.8934543888887 453.14220805973633 975.4304913932208 454.20040919269144Q974.9344596121482 455.29167911105134 974.4714966164803 456.4821553856258L974.4714966164803 456.4821553856258Q971.6275810716636 462.89749975416595 968.287633745774 471.23083367618716Q964.9476864198846 479.56416759820837 962.2029772312824 486.9385067434891Q959.4582680426802 494.3459146741746 958.0363102702718 498.38030649356585L958.0363102702718 498.38030649356585Q960.6487443172547 495.0403591676764 965.9066811966252 488.98877143858954Q971.1315492905908 482.9041149240979 977.9106502985844 475.6289821350317Q984.7228200919826 468.3869181313704 991.9648840956439 461.83929862121084Q999.24001688471 455.29167911105134 1005.6553612532502 450.99273700842133Q1012.1037744071953 446.7268636911962 1016.6011292222543 446.7268636911962L1016.6011292222543 446.7268636911962Q1022.0905475994588 446.7268636911962 1022.0905475994588 452.91072656190244L1022.0905475994588 452.91072656190244Q1022.0905475994588 457.67263166020024 1018.2876372779015 465.27845230331485L1018.2876372779015 465.27845230331485Q1016.6011292222543 468.84988112703826 1013.7572136774374 474.93453764152997Q1010.9132981326208 480.9861253706168 1009.2267900769737 484.09459119867233L1009.2267900769737 484.09459119867233Q1013.5257321796037 480.29168087711497 1018.9820817714033 475.6289821350317Q1024.4715001486077 470.99935217835326 1030.5561566630993 466.964960358962Q1036.6077443921863 462.89749975416595 1041.8656812715567 461.01257898608975L1041.8656812715567 461.01257898608975Q1043.056157546131 460.51654720501705 1046.6275863698547 459.45834607206194Q1050.199015193578 458.36707615370204 1052.8114492405607 458.36707615370204L1052.8114492405607 458.36707615370204Q1056.3828780642841 458.36707615370204 1056.3828780642841 460.74802870285095L1056.3828780642841 460.74802870285095Q1056.3828780642841 462.4345367584981 1054.6963700086371 464.31945752657435L1054.6963700086371 464.31945752657435Q1050.661978189246 470.5363891826854 1047.4543060049757 477.54697168851277Q1044.2466338207055 484.5575541943402 1042.3286442672245 490.77448585045124Q1040.4106547137435 496.95834872115745 1039.9476917180757 500.76125904271476L1039.9476917180757 500.76125904271476Q1039.7162102202417 501.7202538194553 1039.7162102202417 502.54697345457646Q1039.7162102202417 503.3736930896976 1039.7162102202417 504.3326878664381L1039.7162102202417 504.3326878664381Q1039.7162102202417 513.8564980630338 1045.900073090948 513.8564980630338L1045.900073090948 513.8564980630338Q1049.7029834125053 513.8564980630338 1055.6553647853775 509.6898311020232Q1061.60774615825 505.5231641410126 1067.7916090289561 499.4385076265209Q1074.0085406850671 493.3869198974341 1079.1011336374136 487.7982951640151Q1084.2267953751646 482.1766016451913 1086.1447849286458 479.3326861003745L1086.1447849286458 479.3326861003745Q1086.8392294221476 478.6051728214679 1087.566742701054 478.6051728214679L1087.566742701054 478.6051728214679Q1088.5257374777946 478.6051728214679 1089.1209756150818 479.3326861003745Q1089.7162137523692 480.0601993792811 1089.2201819712964 481.2506756538556L1089.2201819712964 481.2506756538556Q1087.1037797053864 485.2850674732468 1081.9781179676352 491.3697239877385Q1076.852456229884 497.4213117168253 1070.5363182175583 503.505968231317Q1064.2201802052327 509.5575559604038 1058.2677988323603 513.8564980630338L1058.2677988323603 513.8564980630338Q1055.1924017897097 516.2374506121828 1050.5297030476263 518.0231650240444Q1045.900073090948 519.8088794359062 1041.13816799265 519.8088794359062L1041.13816799265 519.8088794359062Q1036.83922589002 519.8088794359062 1033.400072207916 517.890889882425Q1029.960918525812 516.0059691143488 1028.2744104701649 510.74803223497827L1028.2744104701649 510.74803223497827Q1027.579965976663 508.6316299690682 1027.579965976663 505.2916826431787L1027.579965976663 505.2916826431787Q1027.579965976663 500.03374576380816 1029.0019237490715 493.3869198974341Q1030.4238815214799 486.7070252456552 1032.0773207917223 482.1766016451913L1032.0773207917223 482.1766016451913Q1033.2677970662967 478.8697231047066 1035.318061761397 474.703056143696Q1037.3352576710927 470.5363891826854 1038.988696941335 467.6594048524638L1038.988696941335 467.6594048524638Q1031.6143577960545 470.5363891826854 1024.7029816464415 476.2242202723189Q1017.7916054968287 481.9451201473573 1012.2029807634096 487.7982951640151Q1006.6143560299907 493.618401395268 1002.8114457084334 497.4213117168253L1002.8114457084334 497.4213117168253Q1001.8524509316929 500.03374576380816 999.1077417430906 501.7202538194553Q996.3630325544884 503.3736930896976 993.9820800053395 503.3736930896976L993.9820800053395 503.3736930896976Q990.4106511816162 503.3736930896976 990.4106511816162 500.2982960470469L990.4106511816162 500.2982960470469Q990.4106511816162 499.10781977247245 991.1381644605228 497.4213117168253L991.1381644605228 497.4213117168253Q993.5191170096716 491.70041184178694 996.4953076961078 485.6488241127001Q999.471498382544 479.56416759820837 1001.9847260733122 474.5707810020766Q1004.4648849786757 469.57739440594486 1005.4238797554162 467.6594048524638L1005.4238797554162 467.6594048524638Q1007.3418693088973 464.31945752657435 1007.3418693088973 462.4345367584981L1007.3418693088973 462.4345367584981Q1007.3418693088973 460.51654720501705 1005.6553612532502 460.51654720501705L1005.6553612532502 460.51654720501705Q1004.001921983008 460.51654720501705 1000.1990116614506 462.66601825633205Q996.3630325544884 464.81548930764706 990.1791696837822 470.27183889944666L990.1791696837822 470.27183889944666Q985.1857830876504 474.80226249991057 979.2334017147782 482.0773952889767Q973.2810203419058 489.319459292638 967.7916019647014 496.95834872115745Q962.3352523729018 504.56416936427206 958.1685854118912 510.0535877414765Q954.0019184508806 515.5099373332762 952.3154103952334 516.4689321100167L952.3154103952334 516.4689321100167Q950.893452622825 517.1964453889233 946.7267856618143 518.8498846591656Q942.5601187008037 520.5363927148128 940.4106476494887 520.5363927148128ZM1149.70299047676 519.8088794359062L1149.70299047676 519.8088794359062Q1145.6685986573689 519.8088794359062 1142.1963761898598 517.890889882425Q1138.7572225077558 516.0059691143488 1137.1037832375137 510.74803223497827L1137.1037832375137 510.74803223497827Q1136.376269958607 508.6316299690682 1136.376269958607 504.795650862106L1136.376269958607 504.795650862106Q1136.376269958607 499.5707827681403 1137.7982277310152 493.15543839960014Q1139.2201855034236 486.7070252456552 1140.9066935590708 482.1766016451913L1140.9066935590708 482.1766016451913Q1139.7162172844965 482.6726334262639 1136.5085451002262 486.34326860620183Q1133.2678041305514 490.0469725715446 1128.638174173873 495.17263430929574Q1124.0085442171944 500.2982960470469 1118.3868506983706 505.3908889993932Q1112.7982259649516 510.5165507371443 1106.8458445920794 513.8564980630338Q1100.893463219207 517.1964453889233 1095.1725633441688 517.1964453889233L1095.1725633441688 517.1964453889233Q1091.3696530226114 517.1964453889233 1087.1037797053864 514.914699195989Q1082.8048376027562 512.6660217884594 1080.1924035557734 509.09459296473597L1080.1924035557734 509.09459296473597Q1076.62097473205 504.3326878664381 1076.62097473205 499.3393012703064L1076.62097473205 499.3393012703064Q1076.62097473205 492.8908881163614 1081.0191231908946 486.0125807521534Q1085.417271649739 479.1012046025406 1092.4609229409714 472.553585092381Q1099.4715054467988 466.00596558222145 1107.4410827293666 460.6488223466364Q1115.4106600119344 455.29167911105134 1122.6857928010006 451.5879751457086Q1129.9609255900668 447.9173399657706 1134.4582804051258 446.7268636911962L1134.4582804051258 446.7268636911962Q1139.2201855034236 445.271837133383 1145.172566876296 445.271837133383L1145.172566876296 445.271837133383Q1148.5125142021855 445.271837133383 1152.0839430259089 446.131625553909Q1155.6553718496323 446.9583451890301 1158.036324398781 448.8432659571063L1158.036324398781 448.8432659571063Q1159.9543139522623 449.8022607338469 1161.1447902268367 451.48876878949403Q1162.3352665014113 453.14220805973633 1162.3352665014113 455.06019761321744L1162.3352665014113 455.06019761321744Q1162.3352665014113 456.94511838129364 1160.648758445764 456.2506738877919L1160.648758445764 456.2506738877919Q1158.7638376776877 453.37368955757023 1155.5561654934177 452.54696992244914Q1152.3154245237429 451.72025028732793 1149.0085459832583 451.72025028732793L1149.0085459832583 451.72025028732793Q1139.4847357866624 451.72025028732793 1128.0429360365856 457.9041131580342Q1116.601136286509 464.0879760287404 1107.573357870986 472.4213099507616L1107.573357870986 472.4213099507616Q1104.6963735407644 474.80226249991057 1099.835262086252 480.6554375165683Q1094.9410818463348 486.47554374782123 1090.9066900269436 493.3869198974341Q1086.8392294221476 500.2982960470469 1086.8392294221476 505.98612713668047L1086.8392294221476 505.98612713668047Q1086.8392294221476 509.09459296473597 1088.5257374777946 511.4755455138849L1088.5257374777946 511.4755455138849Q1089.4847322545352 513.1289847841272 1091.6011345204454 513.1289847841272L1091.6011345204454 513.1289847841272Q1094.9410818463348 513.1289847841272 1100.5297065797538 509.5575559604038Q1106.1514000985776 505.98612713668047 1112.1037814714498 500.89353418433416Q1118.0561628443222 495.767872446583 1122.9172742988346 491.00596734828514Q1127.8114545387518 486.2440622499873 1129.9609255900668 484.09459119867233L1129.9609255900668 484.09459119867233Q1131.1514018646412 482.9041149240979 1134.5905555467452 479.20041095875507Q1138.0297092288492 475.52977577881717 1142.0971698336452 471.23083367618716Q1146.1315616530364 466.964960358962 1149.3392338373067 463.8564945309065Q1152.5799748069817 460.74802870285095 1153.5059007983173 460.74802870285095L1153.5059007983173 460.74802870285095Q1154.6963770728917 460.74802870285095 1157.441086261494 461.34326684013814Q1160.185795450096 461.9385049774254 1162.1037850035773 463.12898125199985Q1163.9887057716535 464.31945752657435 1162.7982294970789 466.2374470800554L1162.7982294970789 466.2374470800554Q1156.6143666263729 475.29829428098327 1152.91066266103 485.1527923316274Q1149.240027481092 495.0403591676764 1148.5125142021855 500.76125904271476L1148.5125142021855 500.76125904271476Q1148.2810327043514 501.7202538194553 1148.2810327043514 502.54697345457646Q1148.2810327043514 503.3736930896976 1148.2810327043514 504.3326878664381L1148.2810327043514 504.3326878664381Q1148.2810327043514 513.8564980630338 1154.9609273561305 513.8564980630338L1154.9609273561305 513.8564980630338Q1158.5323561798539 513.8564980630338 1164.484737552726 509.5575559604038Q1170.4371189255985 505.2916826431787 1176.6209817963047 499.3393012703064Q1182.804844667011 493.3869198974341 1187.9305064047621 487.7982951640151Q1193.0561681425133 482.1766016451913 1194.9410889105893 479.3326861003745L1194.9410889105893 479.3326861003745Q1195.6686021894961 478.6051728214679 1196.3630466829977 478.6051728214679L1196.3630466829977 478.6051728214679Q1197.3220414597386 478.6051728214679 1198.049554738645 479.4649612419939Q1198.7439992321467 480.29168087711497 1198.049554738645 481.4821571516895L1198.049554738645 481.4821571516895Q1195.4371206916621 485.74803046891464 1190.4106653101255 491.70041184178694Q1185.4172787139937 497.6527932146592 1179.2334158432875 503.6051745875315Q1173.0495529725813 509.5575559604038 1167.097171599709 513.8564980630338L1167.097171599709 513.8564980630338Q1163.9887057716535 516.2374506121828 1159.2268006733557 518.0231650240444Q1154.4648955750579 519.8088794359062 1149.70299047676 519.8088794359062ZM1181.1514053967685 520.5363927148128L1181.1514053967685 520.5363927148128Q1179.4648973411215 520.5363927148128 1180.192410620028 518.8498846591656L1180.192410620028 518.8498846591656Q1180.8868551135297 517.4279268867572 1182.804844667011 512.3022651490061Q1184.7228342204921 507.1766034112549 1187.2029931258555 500.03374576380816Q1189.7162208166237 492.8908881163614 1192.3286548636065 485.2850674732468Q1194.9410889105893 477.6792468301322 1197.2228351035237 470.99935217835326Q1199.4715125110533 464.31945752657435 1200.8934702834617 460.51654720501705L1200.8934702834617 460.51654720501705Q1201.3895020645346 459.09458943260864 1201.8524650602021 456.34988024400644Q1202.3154280558701 453.6051710554042 1203.8696609698977 451.35649364787463Q1205.4238938839258 449.10781624034513 1209.226804205483 449.10781624034513L1209.226804205483 449.10781624034513Q1216.3696618529298 449.10781624034513 1216.3696618529298 452.41469478082973L1216.3696618529298 452.41469478082973Q1216.3696618529298 453.6051710554042 1215.1791855783554 456.4821553856258L1215.1791855783554 456.4821553856258Q1212.3352700335386 462.89749975416595 1208.995322707649 471.23083367618716Q1205.6553753817595 479.56416759820837 1203.0429413347767 486.9385067434891Q1200.430507287794 494.3459146741746 1199.0085495153855 498.38030649356585L1199.0085495153855 498.38030649356585Q1201.3895020645346 495.0403591676764 1206.7466453001196 488.8564962969702Q1212.1037885357046 482.6726334262639 1218.7506144020786 475.52977577881717Q1225.4305090538576 468.3869181313704 1232.672573057519 461.7070234795915Q1239.947705846585 455.06019761321744 1246.2638438589106 450.89353065220683Q1252.5799818712362 446.7268636911962 1257.0773366862954 446.7268636911962L1257.0773366862954 446.7268636911962Q1262.7982365613336 446.7268636911962 1262.7982365613336 452.91072656190244L1262.7982365613336 452.91072656190244Q1262.7982365613336 455.06019761321744 1261.6077602867592 459.32607093044254L1261.6077602867592 459.32607093044254Q1259.4582892354442 465.27845230331485 1256.1514106949596 470.86707703673386Q1252.8114633690702 476.4887705555577 1250.1990293220874 482.6726334262639L1250.1990293220874 482.6726334262639Q1245.6686057216234 493.8498828931019 1244.9410924427168 500.76125904271476L1244.9410924427168 500.76125904271476Q1244.7096109448828 501.7202538194553 1244.7096109448828 502.54697345457646Q1244.7096109448828 503.3736930896976 1244.7096109448828 504.3326878664381L1244.7096109448828 504.3326878664381Q1244.7096109448828 513.8564980630338 1251.124955313423 513.8564980630338L1251.124955313423 513.8564980630338Q1254.6963841371464 513.8564980630338 1260.6487655100186 509.5575559604038Q1266.601146882891 505.2916826431787 1272.9172848952167 499.3393012703064Q1279.2334229075423 493.3869198974341 1284.2268095036738 487.7982951640151Q1289.220196099806 482.1766016451913 1291.1381856532867 479.3326861003745L1291.1381856532867 479.3326861003745Q1291.8656989321935 478.6051728214679 1292.560143425695 478.6051728214679L1292.560143425695 478.6051728214679Q1293.5191382024357 478.6051728214679 1294.114376339723 479.3326861003745Q1294.7096144770103 480.0601993792811 1294.2466514813423 481.2506756538556L1294.2466514813423 481.2506756538556Q1292.0971804300275 485.2850674732468 1286.9715186922763 491.3697239877385Q1281.845856954525 497.4213117168253 1275.6619940838189 503.505968231317Q1269.4781312131126 509.5575559604038 1263.5257498402402 513.8564980630338L1263.5257498402402 513.8564980630338Q1259.954321016517 516.2374506121828 1254.6963841371464 518.1554401656638Q1249.4715160431806 520.04036093374 1244.246647949215 519.8088794359062L1244.246647949215 519.8088794359062Q1237.5667532974362 519.0813661569996 1234.7228377526194 515.1792494792277Q1231.8458534223978 511.244064016051 1231.8458534223978 505.7546456388465L1231.8458534223978 505.7546456388465Q1231.8458534223978 499.3393012703064 1234.3590811131662 492.06416848124024Q1236.8392400185294 484.82210447757893 1239.947705846585 478.3736913236339Q1243.0561716746406 471.95834695509376 1244.9410924427168 468.6183996292043L1244.9410924427168 468.6183996292043Q1246.8590819961978 464.81548930764706 1246.8590819961978 462.66601825633205L1246.8590819961978 462.66601825633205Q1246.8590819961978 460.74802870285095 1245.1725739405506 460.74802870285095L1245.1725739405506 460.74802870285095Q1243.5191346703084 460.74802870285095 1240.179187344419 462.89749975416595Q1236.8392400185294 465.04697080548095 1231.1514089288958 470.27183889944666L1231.1514089288958 470.27183889944666Q1225.8934720495254 474.80226249991057 1219.941090676653 482.0773952889767Q1213.988709303781 489.319459292638 1208.4000845703617 496.95834872115745Q1202.811459836943 504.56416936427206 1198.6447928759321 510.0535877414765Q1194.4781259149217 515.5099373332762 1192.7916178592745 516.4689321100167L1192.7916178592745 516.4689321100167Q1191.6011415847 517.1964453889233 1187.4344746236893 518.8498846591656Q1183.2678076626787 520.5363927148128 1181.1514053967685 520.5363927148128ZM1353.7704652100654 518.1554401656638L1353.7704652100654 518.1554401656638Q1349.2400416096016 518.1554401656638 1345.4371312880442 516.1051754705634Q1341.601152181082 514.0879795608678 1339.9477129108398 509.09459296473597L1339.9477129108398 509.09459296473597Q1338.2942736405976 503.6051745875315 1338.2942736405976 495.5363909487491L1338.2942736405976 495.5363909487491Q1338.2942736405976 491.468930343953 1338.8895117778845 487.3022633829424Q1339.484749915172 483.1355964219318 1340.4106759065075 480.0601993792811L1340.4106759065075 480.0601993792811Q1339.2201996319332 482.1766016451913 1335.9133210914483 488.029776661849Q1332.573373765559 493.8498828931019 1327.579987169427 500.6289839010954Q1322.5535317878907 507.44115369449366 1316.27046256097 512.3022651490061Q1309.9543245486443 517.1964453889233 1302.5799854033635 517.1964453889233L1302.5799854033635 517.1964453889233Q1293.0561752067679 517.1964453889233 1289.4847463830445 512.3022651490061Q1285.913317559321 507.44115369449366 1285.913317559321 500.52977754488086L1285.913317559321 500.52977754488086Q1285.913317559321 492.1964436228596 1289.352471241425 483.2678715635512Q1292.791624923529 474.3392995042427 1296.3630537472525 469.08136262487216L1296.3630537472525 469.08136262487216Q1298.0495618028995 466.70041007572325 1301.389509128789 461.9385049774254Q1304.696387669274 457.17659987912754 1307.9371286389487 453.00993291811693Q1311.1448008232187 448.8432659571063 1312.335277097793 448.3803029614385L1312.335277097793 448.3803029614385Q1313.7572348702015 447.9173399657706 1315.410674140444 447.6527896825319Q1317.0971821960911 447.4213081846979 1318.7506214663333 447.4213081846979L1318.7506214663333 447.4213081846979Q1322.5535317878907 447.4213081846979 1324.9344843370395 448.8432659571063L1324.9344843370395 448.8432659571063Q1327.3154368861883 449.5707792360129 1327.3154368861883 451.2242185062552L1327.3154368861883 451.2242185062552Q1327.3154368861883 451.9517317851619 1326.124960611614 453.14220805973633L1326.124960611614 453.14220805973633Q1323.5125265646311 455.29167911105134 1317.7916266895927 461.7070234795915Q1312.103795599959 468.15543663353645 1306.4821020811355 476.3564954139383Q1300.8934773477165 484.5575541943402 1298.0495618028995 492.65940661852744L1298.0495618028995 492.65940661852744Q1294.9410959748443 500.2982960470469 1294.9410959748443 505.2916826431787L1294.9410959748443 505.2916826431787Q1294.9410959748443 512.4345402906254 1300.1990328542147 512.4345402906254L1300.1990328542147 512.4345402906254Q1305.1924194503463 512.4345402906254 1314.484748149108 505.06020114534476L1314.484748149108 505.06020114534476Q1321.1315740154823 499.8022642659742 1327.3154368861883 491.9649621250257Q1333.5323685422995 484.09459119867233 1338.8895117778845 475.39750063719777Q1344.2466550134698 466.70041007572325 1348.512528330695 459.32607093044254L1348.512528330695 459.32607093044254Q1349.2400416096016 457.67263166020024 1352.579988935491 457.67263166020024L1352.579988935491 457.67263166020024Q1356.6143807548822 457.67263166020024 1360.5495662180588 459.45834607206194Q1364.4847516812356 461.24406048392365 1362.7982436255884 463.62501303307255L1362.7982436255884 463.62501303307255Q1355.8868674759756 474.80226249991057 1352.315438652252 487.6660200223957L1352.315438652252 487.6660200223957Q1351.6209941587504 490.5099355672125 1350.7942745236292 494.6766025282231Q1349.9344861031032 498.8432694892337 1349.9344861031032 502.91073009402976L1349.9344861031032 502.91073009402976Q1349.9344861031032 507.1766034112549 1351.3895126609164 510.2850692393105Q1352.8114704333248 513.393535067366 1356.6143807548822 513.393535067366L1356.6143807548822 513.393535067366Q1358.5323703083632 513.393535067366 1360.5495662180588 512.7982969300788Q1362.5667621277544 512.2030587927916 1365.1791961747372 510.5165507371443L1365.1791961747372 510.5165507371443Q1374.2400433756652 505.7546456388465 1382.9371339371396 497.5535868584447Q1391.6011557132094 489.319459292638 1398.2810503649882 479.20041095875507Q1404.9609450167673 469.08136262487216 1407.0773472826772 459.32607093044254L1407.0773472826772 459.32607093044254Q1407.804860561584 456.4821553856258 1407.804860561584 452.41469478082973L1407.804860561584 452.41469478082973Q1407.804860561584 447.6527896825319 1406.250627647556 443.2546412236873Q1404.6963947335285 438.8564927648428 1400.6620029141372 437.2030534946005L1400.6620029141372 437.2030534946005Q1399.2400451417288 436.7070217135278 1397.5535370860816 436.60781535731326Q1395.9000978158392 436.4755402156939 1393.9821082623585 436.7070217135278L1393.9821082623585 436.7070217135278L1393.5191452666904 436.7070217135278Q1392.328668992116 436.7070217135278 1392.328668992116 435.51654543895336L1392.328668992116 435.51654543895336Q1392.328668992116 434.3260691643789 1393.5191452666904 433.86310616871106L1393.5191452666904 433.86310616871106Q1396.3630608115072 433.13559288980446 1400.8934844119713 433.13559288980446L1400.8934844119713 433.13559288980446Q1405.1924265146013 433.13559288980446 1409.5905749734457 434.5575506622128Q1413.98872343229 436.01257722002606 1415.6752314879373 440.04696903941726L1415.6752314879373 440.04696903941726Q1417.5601522560137 444.5773926398812 1417.5601522560137 449.10781624034513L1417.5601522560137 449.10781624034513Q1417.5601522560137 457.9041131580342 1412.4344905182625 467.8908863502977Q1407.341897565916 477.91072832796607 1399.4715266395629 487.20305702672783L1399.4715266395629 487.20305702672783Q1393.2876637688564 494.80887766984245 1385.648774340337 501.4887723216214Q1378.0429536972224 508.1355981879954 1372.553535320018 511.9385085095528L1372.553535320018 511.9385085095528Q1369.4781382773672 514.3194610587017 1364.3524765396162 516.2374506121828Q1359.226814801865 518.1554401656638 1353.7704652100654 518.1554401656638ZM1433.2678253233155 519.8088794359062L1433.2678253233155 519.8088794359062Q1423.281052131052 519.8088794359062 1419.3458666678753 514.8154928397744Q1415.4106812046984 509.8221062436426 1415.4106812046984 502.41469831295706L1415.4106812046984 502.41469831295706Q1415.4106812046984 495.5363909487491 1418.6514221743735 485.0535859754129Q1421.8590943586437 474.5707810020766 1427.0839624526093 462.4345367584981Q1432.3418993319797 450.2982925149196 1438.3934870610665 438.26125462755556Q1444.4781435755583 426.2242167401916 1450.5297313046453 416.1051684063087Q1456.614387819137 405.98612007242576 1461.1448114196005 399.8022572017195L1461.1448114196005 399.8022572017195Q1465.6752350200645 393.84987582884725 1470.9001031140303 387.89749445597494Q1476.1249712079962 381.9451130831026 1482.573384361941 377.91072126371137Q1488.9887287304812 373.8432606589153 1497.0905811546686 373.8432606589153L1497.0905811546686 373.8432606589153Q1502.579999531873 373.8432606589153 1506.4821162096448 376.81945134535147Q1510.4173016728214 379.7956420317876 1510.4173016728214 385.74802340465993L1510.4173016728214 385.74802340465993Q1510.4173016728214 388.12897595380883 1509.5905820377002 391.2374417818644Q1508.763862402579 394.3459076099199 1506.8458728490982 397.65278615040455L1506.8458728490982 397.65278615040455Q1492.3286760563706 422.917338199707 1472.2228545302241 444.34591114204727Q1452.083964218673 465.77448408438755 1429.696396499592 484.09459119867233L1429.696396499592 484.09459119867233Q1428.7704705082565 487.6660200223957 1427.9106820877305 490.5099355672125Q1427.0839624526093 493.3869198974341 1426.6209994569413 495.0403591676764L1426.6209994569413 495.0403591676764Q1426.3895179591075 496.23083544225085 1426.3895179591075 497.5535868584447Q1426.3895179591075 498.8432694892337 1426.3895179591075 500.03374576380816L1426.3895179591075 500.03374576380816Q1426.3895179591075 505.7546456388465 1428.2744387271837 510.0535877414765Q1430.192428280665 514.3194610587017 1434.722851881129 514.3194610587017L1434.722851881129 514.3194610587017Q1438.988725198354 514.3194610587017 1445.3048632106795 510.15279409769107Q1451.6210012230051 505.98612713668047 1458.0363455915453 499.9345394075936Q1464.4847587454901 493.8498828931019 1469.709626839456 488.12898301806354Q1474.9344949334218 482.44115192843 1477.0839659847366 479.3326861003745L1477.0839659847366 479.3326861003745Q1477.8114792636434 478.6051728214679 1478.505923757145 478.6051728214679L1478.505923757145 478.6051728214679Q1479.4649185338856 478.6051728214679 1480.0601566711728 479.56416759820837Q1480.65539480846 480.523162374949 1479.9609503149584 481.9451201473573L1479.9609503149584 481.9451201473573Q1477.5799977658094 486.0125807521534 1472.322060886439 491.9649621250257Q1467.097192792473 497.917343497898 1460.6487796385281 503.9689312269848Q1454.2334352699881 510.0535877414765 1448.2810538971157 514.5840113419404L1448.2810538971157 514.5840113419404Q1440.906714751835 519.8088794359062 1433.2678253233155 519.8088794359062ZM1433.0363438254817 474.5707810020766L1433.0363438254817 474.5707810020766Q1442.0971910264093 468.3869181313704 1451.852482720839 458.4993512953214Q1461.6077744152685 448.6117844592724 1471.0323782556497 436.9385032113617Q1480.4239133106262 425.2982907488559 1488.16200909536 413.8564909987791Q1495.9001048800942 402.4146912487024 1500.6620099783918 393.1554313353455L1500.6620099783918 393.1554313353455Q1502.0839677508002 390.5099285029578 1502.6792058880874 388.49273259326213Q1503.2744440253746 386.47553668356653 1503.2744440253746 384.82209741332423L1503.2744440253746 384.82209741332423Q1503.2744440253746 380.2916738128603 1499.4715337038174 380.2916738128603L1499.4715337038174 380.2916738128603Q1496.1315863779278 380.2916738128603 1491.1381997817962 383.8631026365837L1491.1381997817962 383.8631026365837Q1478.274442259311 393.84987582884725 1467.328674290307 409.4583425399346Q1456.382906321303 425.03374046561714 1447.8180909014477 442.19644009073227Q1439.2202066961877 459.32607093044254 1433.0363438254817 474.5707810020766ZM1494.4781471076856 517.4279268867572L1494.4781471076856 517.4279268867572Q1492.0971945585368 517.4279268867572 1489.3524853699346 516.9649638910894Q1486.6077761813324 516.4689321100167 1486.6077761813324 513.6250165652L1486.6077761813324 513.6250165652Q1486.6077761813324 512.4345402906254 1489.220210228315 509.9213125998571Q1491.865713060703 507.44115369449366 1494.9411101033534 505.1594075015593Q1498.0495759314092 502.91073009402976 1499.4715337038174 502.91073009402976L1499.4715337038174 502.91073009402976Q1501.1249729740598 502.91073009402976 1501.0257666178452 504.56416936427206Q1500.8934914762258 506.2506774199192 1500.8934914762258 508.1355981879954L1500.8934914762258 508.1355981879954Q1500.8934914762258 509.09459296473597 1499.7030152016514 511.3432703722655Q1498.512538927077 513.6250165652 1497.0905811546686 515.5099373332762Q1495.6686233822602 517.4279268867572 1494.4781471076856 517.4279268867572ZM1544.941113635481 520.04036093374L1544.941113635481 520.04036093374Q1540.6752403182559 520.7678742126466 1536.3762982156256 520.7678742126466L1536.3762982156256 520.7678742126466Q1525.8934932422897 520.7678742126466 1518.9821170926766 515.774487616515Q1512.1038097284686 510.74803223497827 1512.1038097284686 501.2242220383826L1512.1038097284686 501.2242220383826Q1512.1038097284686 495.5363909487491 1515.4106882689534 487.4345385245618L1515.4106882689534 487.4345385245618Q1517.7916408181022 481.9451201473573 1524.2400539720472 474.80226249991057Q1530.6553983405875 467.6594048524638 1539.2202137604427 460.88030384447035Q1547.8180979657025 454.1012028364769 1556.6143948833915 449.7030543776323Q1565.4106918010807 445.271837133383 1572.5535494485273 445.271837133383L1572.5535494485273 445.271837133383Q1575.199052280915 445.271837133383 1577.315454546825 445.9993504122896L1577.315454546825 445.9993504122896Q1579.9609573792127 446.9583451890301 1581.845878147289 448.6117844592724Q1583.7638677007703 450.2982925149196 1583.7638677007703 453.6051710554042L1583.7638677007703 453.6051710554042Q1583.7638677007703 454.33268433431084 1583.7638677007703 455.06019761321744Q1583.7638677007703 455.7546421067192 1583.2678359196975 456.71363688345974L1583.2678359196975 456.71363688345974Q1583.2678359196975 457.44115016236634 1582.2096347867425 459.82210271151524Q1581.1514336537875 462.20305526066414 1579.8286822375935 463.98876967252585Q1578.5059308213997 465.77448408438755 1577.580004830064 464.81548930764706L1577.580004830064 464.81548930764706Q1576.6210100533235 464.0879760287404 1576.6210100533235 462.89749975416595L1576.6210100533235 462.89749975416595Q1576.6210100533235 461.7070234795915 1577.2162481906107 460.15279056556375Q1577.811486327898 458.6316264369408 1577.811486327898 457.44115016236634L1577.811486327898 457.44115016236634Q1577.811486327898 455.7546421067192 1576.9847666927767 454.20040919269144Q1576.1249782722507 452.6792450640685 1574.2400575041745 452.6792450640685L1574.2400575041745 452.6792450640685Q1569.7096339037107 452.6792450640685 1562.566776256264 456.71363688345974Q1555.423918608817 460.74802870285095 1547.917304321917 467.56019849624926Q1540.410690035017 474.3392995042427 1534.4583086621446 482.44115192843Q1528.5059272892722 490.5099355672125 1526.1249747401234 498.61178799139975L1526.1249747401234 498.61178799139975Q1525.4305302466216 500.52977754488086 1525.1990487487876 502.3154919567425Q1524.934498465549 504.1012063686042 1524.934498465549 505.7546456388465L1524.934498465549 505.7546456388465Q1524.934498465549 511.0125825182171 1528.4067209330578 513.2612599257466Q1531.8458746151616 515.5099373332762 1536.8392612112934 515.5099373332762L1536.8392612112934 515.5099373332762Q1542.328679588498 515.5099373332762 1548.0495794635365 513.8564980630338L1548.0495794635365 513.8564980630338Q1564.2202155265063 509.09459296473597 1574.339263860389 500.76125904271476Q1584.458312194272 492.42792512069354 1594.7096356697743 479.3326861003745L1594.7096356697743 479.3326861003745Q1595.6686304465147 478.1422098258 1596.3630749400165 478.3736913236339Q1597.0905882189231 478.6051728214679 1597.553551214591 478.6051728214679L1597.553551214591 478.6051728214679Q1598.2810644934975 478.8697231047066 1598.2810644934975 480.0601993792811L1598.2810644934975 480.0601993792811Q1598.2810644934975 480.523162374949 1598.049582995664 481.2506756538556Q1597.81810149783 481.9451201473573 1597.553551214591 482.44115192843L1597.553551214591 482.44115192843Q1587.3352965244935 496.23083544225085 1574.9345019976763 506.5813652739677Q1562.566776256264 516.9649638910894 1544.941113635481 520.04036093374ZM1609.7228642435743 520.04036093374L1609.7228642435743 520.04036093374Q1603.0429695917956 520.04036093374 1598.049582995664 516.9649638910894L1598.049582995664 516.9649638910894Q1589.7162490736425 511.9385085095528 1589.7162490736425 498.8432694892337L1589.7162490736425 498.8432694892337Q1589.7162490736425 493.3869198974341 1591.6011698417187 486.2440622499873L1591.6011698417187 486.2440622499873Q1593.287677897366 480.29168087711497 1597.553551214591 473.24802958588276Q1601.8524933172212 466.2374470800554 1607.672599548474 459.82210271151524Q1613.5257745651318 453.37368955757023 1620.4371507147446 449.339297738179Q1627.3154580789526 445.271837133383 1634.2268342285656 445.271837133383L1634.2268342285656 445.271837133383Q1637.103818558787 445.271837133383 1639.2202208246972 445.9993504122896L1639.2202208246972 445.9993504122896Q1642.0972051549188 446.9583451890301 1644.1144010646144 449.4385040943936Q1646.13159697431 451.9517317851619 1646.13159697431 455.7546421067192L1646.13159697431 455.7546421067192Q1646.13159697431 459.82210271151524 1644.1144010646144 460.2850657071831Q1642.0972051549188 460.74802870285095 1642.0972051549188 459.32607093044254L1642.0972051549188 459.32607093044254Q1642.0972051549188 458.86310793477475 1642.1964115111332 458.36707615370204Q1642.3286866527528 457.9041131580342 1642.3286866527528 457.67263166020024L1642.3286866527528 457.67263166020024Q1642.3286866527528 455.7546421067192 1641.2704855197976 454.20040919269144Q1640.1792156014376 452.6792450640685 1637.335300056621 452.6792450640685L1637.335300056621 452.6792450640685Q1633.5323897350636 452.6792450640685 1627.9106962162398 456.71363688345974Q1622.3220714828208 460.74802870285095 1616.501965251568 467.56019849624926Q1610.6487902349104 474.3392995042427 1606.2506417760655 482.44115192843Q1601.8524933172212 490.5099355672125 1600.4305355448128 498.61178799139975L1600.4305355448128 498.61178799139975Q1600.1990540469787 499.8022642659742 1600.0667789053591 500.89353418433416Q1599.93450376374 501.9517353172892 1599.93450376374 503.1422115918637L1599.93450376374 503.1422115918637Q1599.93450376374 508.6316299690682 1602.4477314545084 512.3022651490061Q1604.9609591452763 516.0059691143488 1610.4173087370762 516.0059691143488L1610.4173087370762 516.0059691143488Q1617.0972033888552 516.0059691143488 1623.2810662595614 510.8803073765977Q1629.4649291302676 505.7546456388465 1634.3591093701848 498.61178799139975Q1639.2202208246972 491.468930343953 1641.601173373846 486.0125807521534L1641.601173373846 486.0125807521534Q1643.5191629273272 481.7136386495234 1644.2466762062338 478.6051728214679Q1644.9411206997356 475.52977577881717 1644.9411206997356 473.38030472750216L1644.9411206997356 473.38030472750216Q1644.9411206997356 471.4623151740211 1644.5773640602822 470.0403574016127Q1644.2466762062338 468.6183996292043 1643.7506444251612 467.6594048524638L1643.7506444251612 467.6594048524638Q1643.2876814294932 466.2374470800554 1643.2876814294932 465.5099338011488L1643.2876814294932 465.5099338011488Q1643.2876814294932 463.62501303307255 1644.841914343521 462.4345367584981Q1646.3630784721438 461.24406048392365 1648.0495865277912 461.24406048392365L1648.0495865277912 461.24406048392365Q1649.4715443001994 461.24406048392365 1651.1249835704416 462.20305526066414L1651.1249835704416 462.20305526066414Q1653.0429731239228 462.66601825633205 1656.3829204498122 462.89749975416595Q1659.7228677757016 463.12898125199985 1663.525778097259 463.12898125199985L1663.525778097259 463.12898125199985Q1667.5601699166502 463.12898125199985 1671.7268368776608 462.89749975416595Q1675.8935038386714 462.66601825633205 1679.0019696667268 461.9385049774254L1679.0019696667268 461.9385049774254Q1679.4649326623949 461.7070234795915 1680.4239274391355 461.7070234795915L1680.4239274391355 461.7070234795915Q1682.0773667093777 461.7070234795915 1682.0773667093777 462.66601825633205L1682.0773667093777 462.66601825633205Q1682.0773667093777 463.62501303307255 1680.4239274391355 464.31945752657435L1680.4239274391355 464.31945752657435Q1672.0905935171143 468.15543663353645 1665.5429740069544 468.3869181313704Q1658.9953544967952 468.6183996292043 1654.2334493984972 468.6183996292043L1654.2334493984972 468.6183996292043Q1654.6964123941652 474.5707810020766 1651.6210153515144 481.3498820100701Q1648.512549523459 488.12898301806354 1645.1726021975696 493.3869198974341L1645.1726021975696 493.3869198974341Q1641.138210378178 499.3393012703064 1635.9133422842126 505.5231641410126Q1630.655405404842 511.7070270117188 1624.240061036302 515.8736939727294Q1617.7916478823568 520.04036093374 1609.7228642435743 520.04036093374ZM1670.6686357447056 520.5363927148128L1670.6686357447056 520.5363927148128Q1668.7506461912249 520.5363927148128 1669.4781594701312 518.8498846591656L1669.4781594701312 518.8498846591656Q1670.437154246872 517.1964453889233 1672.9173131522355 510.4173443809298Q1675.4305408430037 503.6051745875315 1678.6382130272739 494.3459146741746Q1681.8458852115436 485.0535859754129 1684.9543510395993 476.4887705555577L1684.9543510395993 476.4887705555577Q1682.5733984904505 480.0601993792811 1679.828689301848 483.3670779197657Q1677.083980113246 486.7070252456552 1675.1990593451696 488.8564962969702L1675.1990593451696 488.8564962969702Q1674.471546066263 489.5840095758768 1674.2400645684293 489.5840095758768L1674.2400645684293 489.5840095758768Q1673.5125512895227 489.5840095758768 1673.5125512895227 488.12898301806354L1673.5125512895227 488.12898301806354Q1673.5125512895227 485.2850674732468 1674.9345090619308 482.9041149240979L1674.9345090619308 482.9041149240979Q1679.9609644434677 476.4887705555577 1682.5733984904505 472.78506659021497Q1685.1858325374333 469.08136262487216 1686.9715469492949 466.105171938436Q1688.757261361157 463.12898125199985 1690.6752509146377 459.32607093044254L1690.6752509146377 459.32607093044254Q1691.1382139103057 456.71363688345974 1692.4609653264993 452.91072656190244Q1693.7506479572885 449.10781624034513 1698.74403455342 449.10781624034513L1698.74403455342 449.10781624034513Q1706.1514424841057 449.10781624034513 1706.1514424841057 452.1832132829958L1706.1514424841057 452.1832132829958Q1706.1514424841057 453.14220805973633 1705.6554107030329 454.20040919269144Q1705.1924477073653 455.29167911105134 1704.6964159262925 456.4821553856258L1704.6964159262925 456.4821553856258Q1701.8525003814757 462.89749975416595 1698.5125530555863 471.23083367618716Q1695.172605729697 479.56416759820837 1692.4609653264993 486.9385067434891Q1689.7162561378973 494.3459146741746 1688.2942983654887 498.38030649356585L1688.2942983654887 498.38030649356585Q1690.9067324124717 495.0403591676764 1696.1316005064373 488.98877143858954Q1701.3895373858081 482.9041149240979 1708.1686383938013 475.6289821350317Q1714.947739401795 468.3869181313704 1722.222872190861 461.83929862121084Q1729.4649361945221 455.29167911105134 1735.9133493484674 450.99273700842133Q1742.3286937170074 446.7268636911962 1746.8591173174714 446.7268636911962L1746.8591173174714 446.7268636911962Q1752.315466909271 446.7268636911962 1752.315466909271 452.91072656190244L1752.315466909271 452.91072656190244Q1752.315466909271 457.67263166020024 1748.5125565877138 465.27845230331485L1748.5125565877138 465.27845230331485Q1746.8591173174714 468.84988112703826 1743.9821329872498 474.93453764152997Q1741.138217442433 480.9861253706168 1739.4847781721905 484.09459119867233L1739.4847781721905 484.09459119867233Q1743.7506514894158 480.29168087711497 1749.2400698666202 475.6289821350317Q1754.6964194584198 470.99935217835326 1760.7810759729114 466.964960358962Q1766.865732487403 462.89749975416595 1772.090600581369 461.01257898608975L1772.090600581369 461.01257898608975Q1773.2810768559434 460.51654720501705 1776.8525056796666 459.45834607206194Q1780.4239345033902 458.36707615370204 1783.036368550373 458.36707615370204L1783.036368550373 458.36707615370204Q1786.6077973740962 458.36707615370204 1786.6077973740962 460.74802870285095L1786.6077973740962 460.74802870285095Q1786.6077973740962 462.4345367584981 1784.9543581038542 464.31945752657435L1784.9543581038542 464.31945752657435Q1780.8868974990578 470.5363891826854 1777.6792253147878 477.54697168851277Q1774.4715531305178 484.5575541943402 1772.5535635770366 490.77448585045124Q1770.6686428089606 496.95834872115745 1770.1726110278878 500.76125904271476L1770.1726110278878 500.76125904271476Q1769.9411295300538 501.7202538194553 1769.9411295300538 502.54697345457646Q1769.9411295300538 503.3736930896976 1769.9411295300538 504.3326878664381L1769.9411295300538 504.3326878664381Q1769.9411295300538 513.8564980630338 1776.1249924007602 513.8564980630338L1776.1249924007602 513.8564980630338Q1779.9609715077222 513.8564980630338 1785.9133528805946 509.6898311020232Q1791.8657342534666 505.5231641410126 1798.049597124173 499.4385076265209Q1804.2334599948795 493.3869198974341 1809.3591217326307 487.7982951640151Q1814.484783470382 482.1766016451913 1816.3697042384579 479.3326861003745L1816.3697042384579 479.3326861003745Q1817.0972175173642 478.6051728214679 1817.7916620108663 478.6051728214679L1817.7916620108663 478.6051728214679Q1818.7506567876067 478.6051728214679 1819.3458949248939 479.3326861003745Q1819.941133062181 480.0601993792811 1819.4781700665135 481.2506756538556L1819.4781700665135 481.2506756538556Q1817.3286990151983 485.2850674732468 1812.203037277447 491.3697239877385Q1807.0773755396963 497.4213117168253 1800.7943063127755 503.505968231317Q1794.4781683004499 509.5575559604038 1788.5257869275774 513.8564980630338L1788.5257869275774 513.8564980630338Q1785.4173210995218 516.2374506121828 1780.7876911428434 518.0231650240444Q1776.1249924007602 519.8088794359062 1771.3630873024622 519.8088794359062L1771.3630873024622 519.8088794359062Q1767.0972139852374 519.8088794359062 1763.6249915177282 517.890889882425Q1760.1858378356242 516.0059691143488 1758.5323985653818 510.74803223497827L1758.5323985653818 510.74803223497827Q1757.8048852864754 508.6316299690682 1757.8048852864754 505.2916826431787L1757.8048852864754 505.2916826431787Q1757.8048852864754 500.03374576380816 1759.2268430588838 493.3869198974341Q1760.6488008312922 486.7070252456552 1762.3353088869394 482.1766016451913L1762.3353088869394 482.1766016451913Q1763.5257851615138 478.8697231047066 1765.5429810712094 474.703056143696Q1767.560176980905 470.5363891826854 1769.2466850365522 467.6594048524638L1769.2466850365522 467.6594048524638Q1761.8392771058666 470.5363891826854 1754.9609697416586 476.2242202723189Q1748.0495935920458 481.9451201473573 1742.4609688586265 487.7982951640151Q1736.839275339803 493.618401395268 1733.0363650182458 497.4213117168253L1733.0363650182458 497.4213117168253Q1732.077370241505 500.03374576380816 1729.3657298383077 501.7202538194553Q1726.6210206497053 503.3736930896976 1724.2400681005565 503.3736930896976L1724.2400681005565 503.3736930896976Q1720.6686392768333 503.3736930896976 1720.6686392768333 500.2982960470469L1720.6686392768333 500.2982960470469Q1720.6686392768333 499.10781977247245 1721.363083770335 497.4213117168253L1721.363083770335 497.4213117168253Q1723.7440363194837 491.70041184178694 1726.7202270059202 485.6488241127001Q1729.6964176923561 479.56416759820837 1732.2096453831246 474.5707810020766Q1734.722873073893 469.57739440594486 1735.6487990652286 467.6594048524638L1735.6487990652286 467.6594048524638Q1737.5667886187098 464.31945752657435 1737.5667886187098 462.4345367584981L1737.5667886187098 462.4345367584981Q1737.5667886187098 460.51654720501705 1735.9133493484674 460.51654720501705L1735.9133493484674 460.51654720501705Q1734.2268412928202 460.51654720501705 1730.4239309712625 462.66601825633205Q1726.6210206497053 464.81548930764706 1720.4371577789993 470.27183889944666L1720.4371577789993 470.27183889944666Q1715.4107023974625 474.80226249991057 1709.4583210245905 482.0773952889767Q1703.505939651718 489.319459292638 1698.0495900599185 496.95834872115745Q1692.5601716827139 504.56416936427206 1688.3935047217033 510.0535877414765Q1684.226837760693 515.5099373332762 1682.5733984904505 516.4689321100167L1682.5733984904505 516.4689321100167Q1681.151440718042 517.1964453889233 1676.9847737570317 518.8498846591656Q1672.8181067960209 520.5363927148128 1670.6686357447056 520.5363927148128Z " fill="#ffffff" transform="matrix(0.4808535526225889,0,0,0.48085355262258894,0,84.17209936006651)"/></g></svg>