<svg xmlns="http://www.w3.org/2000/svg" version="1.1" xmlns:xlink="http://www.w3.org/1999/xlink" xmlns:svgjs="http://svgjs.dev/svgjs" width="100%" height="100%" viewBox="0 0 1000 600"><rect width="1000" height="600" x="0" y="0" fill="#001e3c"/><g><rect width="333.3333333333333" height="333.3333333333333" y="112.26853474535957" fill="#001e3c" transform="matrix(1.3881748246226153,0,0,1.3881748246226153,0,-87.21080772100964)" x="90.04629516601562"/><path d="M223.61772687382893 353.93520252213136L212.90344148392222 353.93520252213136Q210.5522510789149 353.93520252213136 209.27248921289828 352.5363930406713Q207.96296544302078 351.1375835592113 207.96296544302078 348.9947264812299L207.96296544302078 348.9947264812299L207.96296544302078 209.08401643136492Q207.96296544302078 206.7328260263576 209.27248921289828 205.33401654489757Q210.5522510789149 203.93520706343753 212.90344148392222 203.93520706343753L212.90344148392222 203.93520706343753L300.34391502710525 203.93520706343753Q302.6951054321126 203.93520706343753 304.0939149135726 205.33401654489757Q305.4629624911718 206.7328260263576 305.4629624911718 209.08401643136492L305.4629624911718 209.08401643136492L305.4629624911718 217.65544474329027Q305.4629624911718 220.0066351482976 304.0939149135726 221.28639701431422Q302.6951054321126 222.56615888033085 300.34391502710525 222.56615888033085L300.34391502710525 222.56615888033085L228.7665362417563 222.56615888033085L228.7665362417563 272.50663355884046L296.05820087114256 272.50663355884046Q298.4093912761499 272.50663355884046 299.80820075760994 273.9054430403005Q301.17724833520913 275.30425252176053 301.17724833520913 277.6554429267678L301.17724833520913 277.6554429267678L301.17724833520913 286.2268712386932Q301.17724833520913 288.36972831667447 299.80820075760994 289.7685377981346Q298.4093912761499 291.1375853757338 296.05820087114256 291.1375853757338L296.05820087114256 291.1375853757338L228.7665362417563 291.1375853757338L228.7665362417563 348.9947264812299Q228.7665362417563 351.1375835592113 227.36772676029625 352.5363930406713Q225.96891727883622 353.93520252213136 223.61772687382893 353.93520252213136L223.61772687382893 353.93520252213136Z " fill="#001e3c" transform="matrix(1.3881748246226153,0,0,1.3881748246226153,0,-87.21080772100964)"/><path d="M557.2916640541645 353.935201627326L557.2916640541645 353.935201627326Q543.4027755468326 353.935201627326 532.0216030199911 348.37964622439324Q520.6018502472959 342.82409082146046 513.6574059936299 333.37193058730395Q506.71296173996393 323.91977035314744 506.71296173996393 311.99847438435415L506.71296173996393 311.99847438435415Q506.71296173996393 292.8240921950654 522.2993810648586 281.4429196682239Q537.8472201438997 270.0617471413824 562.8472194570973 266.4352040311346L562.8472194570973 266.4352040311346L604.2438232581172 260.609586907226L604.2438232581172 252.5463155238027Q604.2438232581172 239.1975504584225 596.6049345790847 231.71298276280473Q588.9660459000521 224.22841506718697 571.7206760034483 224.22841506718697L571.7206760034483 224.22841506718697Q559.4907380678253 224.22841506718697 551.7361086512317 229.20526678231425Q543.9428989887843 234.22069874329523 540.8950595663421 241.9753281598889L540.8950595663421 241.9753281598889Q539.236108994633 246.14199471208852 535.0694424424333 246.14199471208852L535.0694424424333 246.14199471208852L522.5694427858346 246.14199471208852Q519.5216033633923 246.14199471208852 517.9783935292443 244.3673034028183Q516.4351836950963 242.5540318476944 516.4351836950963 240.0463158672039L516.4351836950963 240.0463158672039Q516.4351836950963 235.87964931500434 519.6373441009534 229.78397047011975Q522.8395045068105 223.64971137938147 529.5138870395006 217.82409425547277Q536.1882695721906 211.9984771315641 546.6049359526896 207.94755131692563Q557.0216023331886 203.93520574814085 571.9907377244241 203.93520574814085L571.9907377244241 203.93520574814085Q588.6574039332224 203.93520574814085 600.0771567059177 208.2561932837552Q611.4583292327591 212.5386005735159 617.9783907820345 219.75310654815777Q624.4984523313096 227.00619276865336 627.4305510161909 236.14971103598023Q630.3240694552184 245.3318095491608 630.3240694552184 254.7839697833173L630.3240694552184 254.7839697833173L630.3240694552184 344.75310311414546Q630.3240694552184 347.5308808156118 628.5493781459481 349.34415237073574Q626.7361065908243 351.1574239258596 623.9583288893579 351.1574239258596L623.9583288893579 351.1574239258596L611.1882675117832 351.1574239258596Q608.1018478434872 351.1574239258596 606.4428972717782 349.34415237073574Q604.783946700069 347.5308808156118 604.783946700069 344.75310311414546L604.783946700069 344.75310311414546L604.783946700069 332.8318071453522Q601.1574035898212 337.80865886047945 595.0617247449367 342.66976983804557Q588.9660459000521 347.5308808156118 579.7839473868715 350.73304122146885Q570.6018488736909 353.935201627326 557.2916640541645 353.935201627326ZM563.1172811780732 333.101868866328L563.1172811780732 333.101868866328Q574.4984537049147 333.101868866328 583.9506139390711 328.2407578887619Q593.4027741732275 323.37964691119566 598.8040085927455 313.11730151411155Q604.2438232581172 302.8163758711736 604.2438232581172 287.2685367921325L604.2438232581172 287.2685367921325L604.2438232581172 279.4753271296852L571.9907377244241 284.22069736969024Q552.2762320931835 286.9984750711567 542.2839484170752 293.518536620432Q532.291664740967 300.03859816970726 532.291664740967 310.03088184581554L532.291664740967 310.03088184581554Q532.291664740967 317.8240915082629 536.8827139975572 322.95526420680494Q541.4351830082938 328.086436905347 548.5339482453746 330.5941528858375Q555.6327134824554 333.101868866328 563.1172811780732 333.101868866328Z " fill="#001e3c" transform="matrix(1.3881748246226153,0,0,1.3881748246226153,0,-87.21080772100964)"/></g></svg>