<svg xmlns="http://www.w3.org/2000/svg" version="1.1" xmlns:xlink="http://www.w3.org/1999/xlink" xmlns:svgjs="http://svgjs.dev/svgjs" width="100%" height="100%" viewBox="0 0 1000 600"><rect width="1000" height="600" x="0" y="0" fill="#283443"/><g><circle r="166.66666666666666" cx="383.20998636881507" cy="405.4321889100795" fill="#303c4b" transform="matrix(0.5772517162292948,0,0,0.5772517162292948,0,65.96356169296513)"/><path d="M318.24657589501766 480.43219377558063L318.24657589501766 480.43219377558063Q302.2274313838574 480.43219377558063 295.75220601027763 470.8882746380001L295.75220601027763 470.8882746380001Q293.528106860222 467.8477340277974 293.528106860222 462.97723842071355L293.528106860222 462.97723842071355Q293.528106860222 457.515526583868 296.96279162359906 453.4614724369311L296.96279162359906 453.4614724369311Q301.01684577053595 448.7880489064345 307.09792699094123 448.7880489064345L307.09792699094123 448.7880489064345Q311.1519811378781 448.7880489064345 313.573152364521 451.63151744004995L313.573152364521 451.63151744004995Q315.8254046683748 453.85561659010557 315.8254046683748 457.7125986604552L315.8254046683748 457.7125986604552Q315.8254046683748 462.5830942675391 312.36256675119955 465.6236348777418L312.36256675119955 465.6236348777418Q308.9278819878225 468.46710341135724 305.07089991747284 468.46710341135724L305.07089991747284 468.46710341135724Q301.63621515409574 468.46710341135724 298.79274662048033 466.01777903091613L298.79274662048033 466.01777903091613Q302.2274313838574 473.7317431716155 311.1519811378781 473.7317431716155L311.1519811378781 473.7317431716155Q332.0416212561223 473.7317431716155 350.2848649173382 446.56394975637886L350.2848649173382 446.56394975637886Q354.93013529403675 439.8916523062119 359.4064867479462 432.4873728572925Q363.8546850480575 425.08309340837303 368.30288334816873 416.9749851144993L368.30288334816873 416.9749851144993Q372.3569374951056 409.2610209738 376.4109916420425 401.5752099868988Q380.4650457889794 393.8612458461995 384.51909993591624 386.1754348592983L384.51909993591624 386.1754348592983Q401.1576138306363 354.75651522053755 421.2308124887335 348.8725060767195L421.2308124887335 348.8725060767195Q413.51684834803416 347.85899253998525 405.91549682252753 346.6484069266638Q398.3141452970209 345.4096681595442 390.6001811563216 344.19908254622277L390.6001811563216 344.19908254622277Q381.4785593257136 342.79142485631417 373.877207800207 342.1720554727544Q366.27585627470035 341.58083924299274 360.4200002846804 341.58083924299274L360.4200002846804 341.58083924299274Q336.48981955623356 341.58083924299274 321.68126065839476 351.49074937994953L321.68126065839476 351.49074937994953Q313.17900821134657 357.1776864471804 308.1114405276755 365.2857947410542L308.1114405276755 365.2857947410542Q302.84680076741716 373.59097511151515 302.84680076741716 381.30493925221447L302.84680076741716 381.30493925221447Q302.84680076741716 399.1258856064578 326.74882834206585 399.1258856064578L326.74882834206585 399.1258856064578Q334.8569366359396 399.1258856064578 342.9650449298133 396.00088553486063Q351.0731532236871 392.84773230946524 359.60355882453337 386.96372316564714L359.60355882453337 386.96372316564714Q366.6981535816729 381.6990834053889 372.77923480207824 375.11124541661644Q378.8603160224835 368.52340742784406 383.50558639918205 360.4152991339703L383.50558639918205 360.4152991339703Q384.51909993591624 358.81056936747444 386.1519828562103 358.81056936747444L386.1519828562103 358.81056936747444Q388.57315408285314 358.81056936747444 387.5596405461189 360.61237121055746L387.5596405461189 360.61237121055746Q383.50558639918205 369.95921827155087 377.6497304091621 377.5605697970575Q371.76572126534404 385.1619213225641 363.8546850480575 391.01777731258403L363.8546850480575 391.01777731258403Q347.63846846031 402.78579560022024 327.9875671091854 402.78579560022024L327.9875671091854 402.78579560022024Q319.2600894317519 402.78579560022024 312.36256675119955 400.44908383497193Q305.46504407064725 398.11237206972356 300.8197736939487 393.27002961643785L300.8197736939487 393.27002961643785Q293.1058095532494 385.1619213225641 293.1058095532494 373.7880471881023L293.1058095532494 373.7880471881023Q293.1058095532494 363.87813705114553 299.18689077365474 354.5312899901522L299.18689077365474 354.5312899901522Q305.26797199406 345.0155240063698 316.41662089813644 339.3285869391389L316.41662089813644 339.3285869391389Q334.65986455935234 330.4321903389163 356.76009029091796 330.4321903389163L356.76009029091796 330.4321903389163Q364.67112650820445 330.4321903389163 375.8197754122809 331.839848028825Q386.9684243163573 333.24750571873363 401.35468590722354 336.09097425234904L401.35468590722354 336.09097425234904Q420.61144310517375 339.94795632269876 432.97067762257154 341.7779113195799Q445.32991213996934 343.6078663164612 450.81977713061303 343.6078663164612L450.81977713061303 343.6078663164612Q462.7848674948364 343.6078663164612 470.0765343285632 339.3285869391389L470.0765343285632 339.3285869391389Q471.2871199418846 338.73737070937733 472.1035614020316 338.73737070937733L472.1035614020316 338.73737070937733Q473.31414701535306 338.73737070937733 473.31414701535306 340.3421004758731L473.31414701535306 340.3421004758731Q473.31414701535306 341.7779113195799 471.68126409505896 342.79142485631417L471.68126409505896 342.79142485631417Q458.308516040927 351.91304668692214 437.8411732296554 350.7024610736007L437.8411732296554 350.7024610736007L431.36594785607565 350.0830916900409Q411.8839654277401 352.30719084009655 399.13058675716786 383.7261104788573L399.13058675716786 383.7261104788573Q382.0979287092734 425.28016548496026 378.8603160224835 431.5583187819528L378.8603160224835 431.5583187819528Q365.2623427379661 457.90967073704246 346.62495492357573 471.31057194497265L346.62495492357573 471.31057194497265Q333.8434230992053 480.43219377558063 318.24657589501766 480.43219377558063Z " fill="#ffffff" transform="matrix(0.5772517162292948,0,0,0.5772517162292948,0,65.96356169296513)"/><path d="M644.769294401437 448.50369799036093L644.769294401437 448.50369799036093Q633.2099813010174 448.50369799036093 633.2099813010174 438.47400923656295L633.2099813010174 438.47400923656295Q633.2099813010174 435.12432554079646 635.3011133191837 432.2006131820639L635.3011133191837 432.2006131820639Q637.5277816718609 429.1220021553189 640.8774653676273 429.1220021553189L640.8774653676273 429.1220021553189Q643.80117772636 429.1220021553189 645.8923097445263 431.2131341734853L645.8923097445263 431.2131341734853Q647.6930067601696 433.30426619165166 647.6930067601696 435.6858332123411L647.6930067601696 435.6858332123411Q647.6930067601696 442.3658382703726 641.7100457081935 442.3658382703726L641.7100457081935 442.3658382703726Q638.0892893434055 442.3658382703726 636.6952013312946 439.57766224615074L636.6952013312946 439.57766224615074Q637.5277816718609 444.59250662304976 645.1952657384709 444.59250662304976L645.1952657384709 444.59250662304976Q646.7248900850926 444.59250662304976 648.1189780972036 444.1858976195174L648.1189780972036 444.1858976195174Q663.8799175674574 440.00363358318464 678.7889143636436 413.5159613530773L678.7889143636436 413.5159613530773Q681.3060177188438 409.04326231422147 684.6363390811089 402.01473525316226Q687.9860227768753 394.9668458586016 692.3038231477188 385.34376610833596L692.3038231477188 385.34376610833596Q700.1262058823412 368.07256462496184 705.7025579307849 358.8560938782286L705.7025579307849 358.8560938782286Q714.3381586724719 344.9152137571195 726.1879067754146 334.7499886688108L726.1879067754146 334.7499886688108L723.6708034202144 334.3240173317768Q721.4441350675372 333.9174083282445 719.0044810463431 333.7625096602322Q716.564827025149 333.6269733257214 713.7766510009271 333.6269733257214L713.7766510009271 333.6269733257214Q708.7618066240282 333.6269733257214 703.6695129131231 334.188480997266Q698.577219202218 334.7499886688108 693.4268384908082 335.85364167839856L693.4268384908082 335.85364167839856Q688.2764577793985 336.9766570214879 684.1522807435704 338.50628136810957Q680.0474660412438 340.0359057147313 676.833318679988 341.8559650638761L676.833318679988 341.8559650638761Q661.0917415432357 351.05307347710783 661.0917415432357 360.25018189033955L661.0917415432357 360.25018189033955Q661.0917415432357 367.78212962243873 671.2569666315444 367.78212962243873L671.2569666315444 367.78212962243873Q677.123753682511 367.78212962243873 684.6363390811089 364.58734459468457L684.6363390811089 364.58734459468457Q692.168286813208 361.2376608989181 697.609102527141 355.7968451849852L697.609102527141 355.7968451849852Q698.1706101986856 355.52577251596364 698.4416828677072 355.52577251596364L698.4416828677072 355.52577251596364Q699.5646982107965 355.52577251596364 699.5646982107965 356.49388919104064L699.5646982107965 356.49388919104064Q699.5646982107965 356.7649618600622 699.4291618762857 356.9198605280746L699.4291618762857 356.9198605280746Q695.2468978399529 362.34131390850587 686.8823697672875 366.38804161032783L686.8823697672875 366.38804161032783Q678.517841694622 370.4347693121498 669.7273422849227 370.4347693121498L669.7273422849227 370.4347693121498Q661.9243218838019 370.4347693121498 656.7545788388906 367.3755206189064L656.7545788388906 367.3755206189064Q651.6041981274808 364.29690959216146 651.6041981274808 359.1465288807517L651.6041981274808 359.1465288807517Q651.6041981274808 354.2672208383635 656.7545788388906 348.264897452886L656.7545788388906 348.264897452886Q664.150990236479 339.62929671119895 680.3185387102653 335.0210613378323L680.3185387102653 335.0210613378323Q687.1534424363091 333.0654656541767 694.6079408344021 332.0973489790997Q702.0624392324952 331.12923230402265 710.2914309706499 331.12923230402265L710.2914309706499 331.12923230402265Q714.7641300095058 331.12923230402265 718.7914953778262 331.535841307555Q722.8382230796481 331.9618126445889 726.6138781124486 332.3684216481212L726.6138781124486 332.3684216481212Q726.88495078147 332.3684216481212 727.5045454535193 332.4458709821274Q728.1435024590702 332.5233203161336 729.1116191341472 332.6588566506444L729.1116191341472 332.6588566506444Q731.3382874868244 331.535841307555 732.7323754989353 332.0973489790997L732.7323754989353 332.0973489790997Q734.2813621790585 331.82627631007813 735.5205515231571 331.6713776420658Q736.7791032007573 331.535841307555 737.9021185438467 331.535841307555L737.9021185438467 331.535841307555Q744.582123601878 331.535841307555 744.582123601878 335.0210613378323L744.582123601878 335.0210613378323Q744.582123601878 336.70558435246636 742.7814265862348 337.67370102754336L742.7814265862348 337.67370102754336Q740.8258309025792 338.64181770262036 738.4636262153913 338.64181770262036L738.4636262153913 338.64181770262036Q735.2494788541355 338.64181770262036 730.5057071462581 335.85364167839856L730.5057071462581 335.85364167839856Q723.8257020882268 339.76483304570974 723.8257020882268 356.0679178540068L723.8257020882268 356.0679178540068Q723.8257020882268 368.3436372939834 726.8075014474639 382.981561421148Q729.8086631402027 397.6194855483126 735.8109865256803 414.91004936518823L735.8109865256803 414.91004936518823Q737.3406108723019 419.092313401521 737.7665822093359 419.092313401521L737.7665822093359 419.092313401521Q737.9021185438467 419.092313401521 737.9021185438467 414.34854169364354L737.9021185438467 414.34854169364354Q738.3087275473789 387.43489812650233 749.8874029813002 361.79916857046277L749.8874029813002 361.79916857046277Q764.2542544394431 330.43218829796723 786.9662716367501 330.43218829796723L786.9662716367501 330.43218829796723Q797.421931727582 330.43218829796723 797.421931727582 337.4026283585218L797.421931727582 337.4026283585218Q797.421931727582 340.59741338627595 795.6212347119387 342.97898040696543L795.6212347119387 342.97898040696543Q793.37520402576 345.902692765698 790.1804189980058 345.902692765698L790.1804189980058 345.902692765698Q787.5277793082947 345.902692765698 785.8626186271623 344.0826334165532L785.8626186271623 344.0826334165532Q784.1780956125283 342.41747273542074 784.1780956125283 340.32634071725437L784.1780956125283 340.32634071725437Q784.1780956125283 334.05294466275524 790.1804189980058 334.05294466275524L790.1804189980058 334.05294466275524Q792.9685950222276 334.05294466275524 794.3626830343386 336.2796130154324L794.3626830343386 336.2796130154324Q793.801175362794 332.23288531361044 788.0892869798395 332.23288531361044L788.0892869798395 332.23288531361044Q786.2692276306947 332.23288531361044 784.3910812810452 332.716943651149Q782.5129349313958 333.220364322189 780.6928755822511 334.3240173317768L780.6928755822511 334.3240173317768Q766.8875317956526 342.8240817389531 752.9466516745435 373.7844530079163L752.9466516745435 373.7844530079163Q739.2962065559575 403.7573452683009 739.9932505620129 422.44199709728747L739.9932505620129 422.44199709728747Q742.2199189146901 425.07527445349695 743.3429342577795 426.3338261310971Q744.4465872673672 427.5923778086972 744.582123601878 427.727914143208L744.582123601878 427.727914143208Q747.3702996260998 431.5035691760084 747.3702996260998 435.25986187530725L747.3702996260998 435.25986187530725Q747.3702996260998 437.4865302279844 745.976211613989 439.3065895771292L745.976211613989 439.3065895771292Q744.582123601878 441.1072865927724 742.3554552492009 441.1072865927724L742.3554552492009 441.1072865927724Q738.4636262153913 441.1072865927724 736.9146395352681 435.25986187530725L736.9146395352681 435.25986187530725Q736.7791032007573 434.2917452002302 736.5661175322404 433.1687298571409Q736.3724941972249 432.0457145140515 736.3724941972249 430.8065251699529L736.3724941972249 430.8065251699529Q736.3724941972249 427.727914143208 737.2050745377911 423.83608510939837L737.2050745377911 423.83608510939837Q730.6412434807689 413.2255263505542 725.0648914323253 395.2572808611247L725.0648914323253 395.2572808611247Q718.3848863742938 373.9199893424271 718.3848863742938 358.31394854018544L718.3848863742938 358.31394854018544Q718.3848863742938 348.5553324554091 721.0375260640049 342.41747273542074L721.0375260640049 342.41747273542074Q712.3825629888163 348.1293611183752 704.1535712506616 374.75256968299334L704.1535712506616 374.75256968299334Q699.0031905392518 391.61716216283503 694.6853901684083 402.9828519282393Q690.3675897975647 414.34854169364354 686.8823697672875 420.19596641110877L686.8823697672875 420.19596641110877Q672.9414896461783 444.1858976195174 648.1189780972036 448.23262532133936L648.1189780972036 448.23262532133936Q647.2863977566373 448.36816165585014 646.453817416071 448.42624865635474Q645.6018747420032 448.50369799036093 644.769294401437 448.50369799036093ZM775.8135675398628 435.25986187530725L775.8135675398628 435.25986187530725Q765.6483424515541 435.25986187530725 765.6483424515541 422.8486061008198L765.6483424515541 422.8486061008198Q765.6483424515541 416.7107463808315 768.5720548102867 409.89520498828927L768.5720548102867 409.89520498828927Q772.7543188466194 399.98169023550054 780.4218029132295 393.1661488429583L780.4218029132295 393.1661488429583Q787.9537506453287 386.4667814514253 794.6337557033602 386.4667814514253L794.6337557033602 386.4667814514253Q804.9538794596812 386.4667814514253 804.9538794596812 398.5876022233896L804.9538794596812 398.5876022233896Q804.9538794596812 404.8609982778887 801.8946307664378 411.83143833844326L801.8946307664378 411.83143833844326Q798.2545120681482 420.19596641110877 791.438970675606 427.03087013715253L791.438970675606 427.03087013715253Q782.9195439349281 435.25986187530725 775.8135675398628 435.25986187530725ZM778.04023589254 432.2006131820639L778.04023589254 432.2006131820639Q781.2543832537957 432.2006131820639 784.8751396185837 429.5479734923528L784.8751396185837 429.5479734923528Q789.4833749919504 426.1982897965863 795.3307997094156 415.60709337124365L795.3307997094156 415.60709337124365Q801.7397320984255 404.1639542718333 801.7397320984255 397.19351421127874L801.7397320984255 397.19351421127874Q801.7397320984255 390.9201181567796 796.453815052505 390.9201181567796L796.453815052505 390.9201181567796Q792.2715510161722 390.9201181567796 786.9662716367501 396.2253975362017L786.9662716367501 396.2253975362017Q781.8158909253403 401.37577824761144 778.1951345605522 409.3336973167446L778.1951345605522 409.3336973167446Q773.315826518164 419.7893574075764 773.315826518164 426.06275346207553L773.315826518164 426.06275346207553Q773.315826518164 432.2006131820639 778.04023589254 432.2006131820639ZM817.5006715686794 435.25986187530725L817.5006715686794 435.25986187530725Q808.4390994899585 435.25986187530725 808.4390994899585 425.36570945602006L808.4390994899585 425.36570945602006Q808.4390994899585 423.41011377236447 808.7876214929862 421.3189817541981Q809.1361434960139 419.22784973603177 809.9687238365801 417.1367177178654L809.9687238365801 417.1367177178654Q817.3651352341686 397.6194855483126 822.5155159455784 385.34376610833596L822.5155159455784 385.34376610833596L813.4539438668575 385.34376610833596L815.1384668814915 382.2845174150925L823.7740676231786 382.2845174150925L827.123751318945 372.5259013303162Q828.9244483345883 367.3755206189064 830.1830000121885 366.38804161032783L830.1830000121885 366.38804161032783Q831.170479020767 365.6909976042724 834.6556990510443 365.6909976042724L834.6556990510443 365.6909976042724L840.6386601030202 365.82653393878314Q837.8504840787984 368.20810095947263 836.4563960666875 371.5577846552391L836.4563960666875 371.5577846552391L831.8675230268224 382.2845174150925L842.458719452165 382.2845174150925L840.774196437531 385.34376610833596L830.6089713492223 385.34376610833596Q829.6214923406437 387.58979679451465 828.7308249995729 389.81646514719176Q827.8207953250005 392.04313349986893 826.6977799819111 394.4053381870569L826.6977799819111 394.4053381870569Q823.7740676231786 400.83363290956834 821.6829356050122 406.5455212925227L821.6829356050122 406.5455212925227Q819.1658322498118 413.08999001604343 817.7136572371963 417.8337617239208Q816.2421198910793 422.5775334317982 815.9710472220578 425.36570945602006L815.9710472220578 425.36570945602006Q815.409539550513 432.2006131820639 819.5918035868458 432.2006131820639L819.5918035868458 432.2006131820639Q823.502994954157 432.2006131820639 829.0793470026007 423.83608510939837L829.0793470026007 423.83608510939837L830.7445076837331 425.7723184595524Q824.0451402922 435.25986187530725 817.5006715686794 435.25986187530725ZM832.7001033673887 436.22797855038425L832.7001033673887 436.22797855038425Q837.4438750752661 425.36570945602006 846.2924614854701 405.07398394640563Q855.1410478956741 384.8016207702928 868.249347676217 355.2353375134405L868.249347676217 355.2353375134405Q868.3848840107277 354.8287285099082 868.4623333447339 354.40275717287426Q868.5204203452384 353.9767858358404 868.5204203452384 353.57017683230805L868.5204203452384 353.57017683230805Q868.5204203452384 351.61458114865246 866.855259664106 349.3879127959753L866.855259664106 349.3879127959753L874.3872073962052 349.3879127959753Q878.2790364300149 349.3879127959753 878.2790364300149 351.18860981161856L878.2790364300149 351.18860981161856Q878.2790364300149 352.17608882019715 877.4464560894487 354.13168450385274L877.4464560894487 354.13168450385274Q873.1286557186052 363.46432925159525 866.2937519925614 378.6637610503045Q859.4588482665175 393.8631928490137 849.9906671842643 414.91004936518823L849.9906671842643 414.91004936518823Q852.0817992024307 411.98633700645564 855.0055115611633 408.9077259797107Q857.9292239198959 405.8484772864673 861.549980284684 402.63432992521155L861.549980284684 402.63432992521155Q864.0670836398842 400.27212523802365 867.1263323331276 398.1035438858511Q870.2049433598726 395.9543248671801 873.8256997246606 393.9987291835245L873.8256997246606 393.9987291835245Q882.0546914628153 389.3904938101579 885.946520496625 389.3904938101579L885.946520496625 389.3904938101579Q886.9339995052036 389.3904938101579 887.3406085087358 389.52603014466865L887.3406085087358 389.52603014466865Q885.1139401560587 393.4372215119798 883.2357938064092 397.0579778767679Q881.3576474567599 400.67873424155596 879.6731244421259 403.8928816028117L879.6731244421259 403.8928816028117Q871.5990313719834 419.4989224050533 870.6115523634049 425.50124579053085L870.6115523634049 425.50124579053085Q870.2049433598726 427.5923778086972 870.2049433598726 429.1220021553189L870.2049433598726 429.1220021553189Q870.2049433598726 432.8976571881193 872.9931193840944 432.8976571881193L872.9931193840944 432.8976571881193Q876.7494120833932 432.8976571881193 883.1583444724031 423.54565010687526L883.1583444724031 423.54565010687526L885.2494764905695 424.80420178447537Q878.0079637609933 435.8213695468519 870.901987365928 435.8213695468519L870.901987365928 435.8213695468519Q862.1114879562286 435.8213695468519 862.1114879562286 426.75979746813096L862.1114879562286 426.75979746813096Q862.1114879562286 419.3633860705425 871.1730600349496 404.8609982778887L871.1730600349496 404.8609982778887Q872.5671480470604 402.63432992521155 872.5671480470604 401.10470557858986L872.5671480470604 401.10470557858986Q872.5671480470604 399.4395448974574 871.0375237004388 399.4395448974574L871.0375237004388 399.4395448974574Q869.507899353817 399.4395448974574 867.068245332623 401.0272562445837Q864.6285913114289 402.63432992521155 861.2789076156624 405.7129409519565L861.2789076156624 405.7129409519565Q855.9736282362403 410.5922489943447 851.307305862369 417.4852397208931Q846.6409834884978 424.3782304474415 842.5942557866758 433.30426619165166L842.5942557866758 433.30426619165166Q841.6261391115988 435.39539820981804 838.1409190813215 435.53093454432883L838.1409190813215 435.53093454432883Q833.5326837079549 435.8213695468519 832.7001033673887 436.22797855038425ZM911.1756410491322 381.3164007400155L911.1756410491322 381.3164007400155Q906.4512316747563 381.3164007400155 906.4512316747563 376.7081653666489L906.4512316747563 376.7081653666489Q906.4512316747563 372.0999299932823 910.9045683801106 372.0999299932823L910.9045683801106 372.0999299932823Q915.648340087988 372.0999299932823 915.648340087988 376.7081653666489L915.648340087988 376.7081653666489Q915.648340087988 381.3164007400155 911.1756410491322 381.3164007400155ZM899.1903566116786 435.25986187530725L892.219916551124 435.25986187530725Q888.173188849302 435.25986187530725 888.173188849302 431.2131341734853L888.173188849302 431.2131341734853Q888.173188849302 428.71539315178654 889.8577118639361 424.3782304474415L889.8577118639361 424.3782304474415Q893.4784682287242 415.47155703673286 896.6926155899799 407.9396093046337Q899.887400617734 400.4076615725344 902.6755766419559 394.2698018525461L902.6755766419559 394.2698018525461Q903.1015479789897 393.5727578464906 903.1015479789897 392.7401775059244L903.1015479789897 392.7401775059244Q903.1015479789897 390.7845818222688 901.2814886298451 388.55791346959165L901.2814886298451 388.55791346959165L908.9489726964549 388.42237713508086Q912.8601640637661 388.42237713508086 912.8601640637661 390.37797281873645L912.8601640637661 390.37797281873645Q912.8601640637661 390.9201181567796 912.569729061243 391.55907516233043Q912.2986563922215 392.1786698343797 911.8726850551876 393.30168517746904L911.8726850551876 393.30168517746904L899.0548202771678 422.98414243533057Q897.0992245935123 427.5923778086972 897.0992245935123 430.8065251699529L897.0992245935123 430.8065251699529Q897.0992245935123 434.1368465322179 899.1903566116786 435.25986187530725L899.1903566116786 435.25986187530725ZM909.9364517050336 436.22797855038425L909.9364517050336 436.22797855038425Q912.7246277292553 429.412437157842 916.906891765588 419.3633860705425Q921.0891558019208 409.3336973167446 927.0721168538968 396.2253975362017L927.0721168538968 396.2253975362017Q928.330668531497 393.4372215119798 929.4536838745863 391.61716216283503Q930.5573368841741 389.81646514719176 931.5448158927527 388.82898613861323L931.5448158927527 388.82898613861323Q933.4810492429068 386.8927527884592 936.5596602696517 386.8927527884592L936.5596602696517 386.8927527884592Q936.8307329386732 386.8927527884592 937.5277769447288 386.8927527884592Q938.2248209507842 386.8927527884592 939.4833726283842 387.16382545748075L939.4833726283842 387.16382545748075Q941.4389683120398 387.29936179199154 942.407084987117 387.16382545748075L942.407084987117 387.16382545748075Q937.2567042757072 390.22307415072413 926.9365805193861 414.21300535913275L926.9365805193861 414.21300535913275Q928.6017412005185 411.83143833844326 931.4673665587466 408.9851753137168Q934.3329919169745 406.1195499554889 938.2248209507842 402.63432992521155L938.2248209507842 402.63432992521155Q940.7419243059844 400.27212523802365 943.8011729992278 398.1035438858511Q946.8797840259728 395.9543248671801 950.5005403907608 393.9987291835245L950.5005403907608 393.9987291835245Q958.7295321289155 389.3904938101579 962.6213611627251 389.3904938101579L962.6213611627251 389.3904938101579Q963.6088401713038 389.3904938101579 964.015449174836 389.52603014466865L964.015449174836 389.52603014466865Q961.7887808221589 393.4372215119798 959.9106344725095 397.0579778767679Q958.03248812286 400.67873424155596 956.347965108226 403.8928816028117L956.347965108226 403.8928816028117Q948.2738720380836 419.4989224050533 947.2863930295051 425.50124579053085L947.2863930295051 425.50124579053085Q947.1508566949943 426.4693624656079 947.0734073609882 427.32130513967564Q947.0153203604835 428.1538854802419 947.0153203604835 428.85092948629733L947.0153203604835 428.85092948629733Q947.0153203604835 432.4716858510854 949.6679600501946 432.4716858510854L949.6679600501946 432.4716858510854Q953.9857604210381 432.4716858510854 959.9687214730142 423.68118644138605L959.9687214730142 423.68118644138605L961.9243171566696 425.07527445349695Q954.8183407616044 435.8213695468519 947.5768280320282 435.8213695468519L947.5768280320282 435.8213695468519Q938.7863286223288 435.8213695468519 938.7863286223288 426.75979746813096L938.7863286223288 426.75979746813096Q938.7863286223288 419.3633860705425 947.8479007010498 404.8609982778887L947.8479007010498 404.8609982778887Q949.2419887131606 402.63432992521155 949.2419887131606 401.10470557858986L949.2419887131606 401.10470557858986Q949.2419887131606 399.4395448974574 947.712364366539 399.4395448974574L947.712364366539 399.4395448974574Q946.1827400199173 399.4395448974574 943.7430859987231 401.0272562445837Q941.303431977529 402.63432992521155 937.9537482817626 405.7129409519565L937.9537482817626 405.7129409519565Q932.6484689023405 410.5922489943447 928.0595958624754 417.3497033863823Q923.4513604891088 424.10715777841995 919.69506778981 432.742758520107L919.69506778981 432.742758520107Q918.8431251157422 434.83389053827335 915.3579050854648 435.25986187530725L915.3579050854648 435.25986187530725Q910.9045683801106 435.6858332123411 909.9364517050336 436.22797855038425ZM962.4858248282143 471.64168652470175L962.4858248282143 471.64168652470175Q955.0894134306259 471.64168652470175 951.4686570658379 466.7623784823136L951.4686570658379 466.7623784823136Q949.9390327192161 464.4001737951256 949.9390327192161 460.48898242781445L949.9390327192161 460.48898242781445Q949.9390327192161 457.4297337345711 950.7716130597823 456.0356457224601L950.7716130597823 456.0356457224601L953.2887164149826 455.9001093879493Q952.5916724089271 458.3978504096481 952.5916724089271 460.21790975879287L952.5916724089271 460.21790975879287Q952.5916724089271 467.7498574908921 961.362809485125 467.7498574908921L961.362809485125 467.7498574908921Q969.4562648887689 467.7498574908921 977.8207929614344 454.77709404486L977.8207929614344 454.77709404486Q980.1829976486223 451.15633768007194 982.6226516698165 446.0640439691668Q985.0623056910105 440.97175025826164 987.3083363771892 434.5628178692518L987.3083363771892 434.5628178692518Q988.8379607238109 430.380553832919 990.2901357364265 426.12084046258013Q991.7616730825436 421.8804894257428 993.2912974291652 417.56268905489924L993.2912974291652 417.56268905489924Q988.2764530522662 425.63678212504163 983.2616086753673 430.5160901674298L983.2616086753673 430.5160901674298Q978.091865630456 435.39539820981804 973.7740652596125 435.39539820981804L973.7740652596125 435.39539820981804Q970.2888452293352 435.39539820981804 968.1977132111689 432.2006131820639L968.1977132111689 432.2006131820639Q965.9710448584916 429.1220021553189 965.9710448584916 423.68118644138605L965.9710448584916 423.68118644138605Q965.9710448584916 410.5922489943447 977.6852566269237 396.3609338707124L977.6852566269237 396.3609338707124Q979.6408523105791 393.9987291835245 982.1385933322779 392.04313349986893Q984.6556966874782 390.08753781621334 987.5794090462108 388.55791346959165L987.5794090462108 388.55791346959165Q993.5817324316882 385.4986647763483 999.158084480132 385.4986647763483L999.158084480132 385.4986647763483Q1005.9736258726742 385.4986647763483 1010.0203535744962 389.95200148170255L1010.0203535744962 389.95200148170255Q1011.0078325830747 390.9201181567796 1011.0078325830747 392.1786698343797L1011.0078325830747 392.1786698343797Q1011.0078325830747 394.5602368550692 1008.4907292278745 393.9987291835245L1008.4907292278745 393.9987291835245Q1007.0966412157635 388.98388480662555 1002.0817968388645 388.98388480662555L1002.0817968388645 388.98388480662555Q996.2150097878979 388.98388480662555 988.2764530522662 397.19351421127874L988.2764530522662 397.19351421127874Q982.429028334801 403.331373931267 978.091865630456 410.43735032633236L978.091865630456 410.43735032633236Q972.2444409129907 420.19596641110877 972.2444409129907 426.75979746813096L972.2444409129907 426.75979746813096Q972.2444409129907 431.5035691760084 975.729660943268 431.5035691760084L975.729660943268 431.5035691760084Q979.9119249796007 431.5035691760084 985.2172043590227 425.36570945602006L985.2172043590227 425.36570945602006Q990.9290927419772 418.5308057299763 997.6090978000087 405.8484772864673L997.6090978000087 405.8484772864673Q1000.2617374897198 400.83363290956834 1001.7913618363415 399.0135735604235L1001.7913618363415 399.0135735604235Q1004.0373925225202 396.7869052077464 1007.0966412157635 396.92244154225716L1007.0966412157635 396.92244154225716L1010.0203535744962 397.348412879291Q1011.7048765891302 397.75502188282337 1012.9440659332288 397.4839492138018L1012.9440659332288 397.4839492138018Q1011.9759492581517 398.4520658888788 1011.0078325830747 399.57508123196817Q1010.0203535744962 400.67873424155596 1009.3233095684407 401.80174958464534L1009.3233095684407 401.80174958464534Q1008.0647578908406 403.7573452683009 1006.5351335442189 406.7585069610397Q1005.0055091975972 409.7403063202769 1003.4758848509755 413.78703402209885L1003.4758848509755 413.78703402209885Q1001.7913618363415 418.1048343929424 1000.339186823726 422.15156209476436Q998.8676494776088 426.1982897965863 997.3380251309871 429.81904616137433L997.3380251309871 429.81904616137433Q993.8528051007098 438.7450819055845 990.9290927419772 445.2895506291052Q988.0053803832446 451.8533816861274 985.759349697066 456.1711820569709L985.759349697066 456.1711820569709Q984.2297253504443 459.2304307502143 981.925607663761 461.7475341054146Q979.6408523105791 464.26463746061484 976.697777618345 466.491305813292L976.697777618345 466.491305813292Q969.8822362258028 471.64168652470175 962.4858248282143 471.64168652470175ZM1062.5890890311784 381.3164007400155L1062.5890890311784 381.3164007400155Q1057.845317323301 381.3164007400155 1057.845317323301 376.7081653666489L1057.845317323301 376.7081653666489Q1057.845317323301 372.0999299932823 1062.2986540286554 372.0999299932823L1062.2986540286554 372.0999299932823Q1067.0424257365328 372.0999299932823 1067.0424257365328 376.7081653666489L1067.0424257365328 376.7081653666489Q1067.0424257365328 381.3164007400155 1062.5890890311784 381.3164007400155ZM1050.5844422602236 435.25986187530725L1043.614002199669 435.25986187530725Q1039.5866368313484 435.25986187530725 1039.5866368313484 431.2131341734853L1039.5866368313484 431.2131341734853Q1039.5866368313484 428.71539315178654 1041.251797512481 424.3782304474415L1041.251797512481 424.3782304474415Q1044.8725538772692 415.47155703673286 1048.0867012385247 407.9396093046337Q1051.281486266279 400.4076615725344 1054.0696622905007 394.2698018525461L1054.0696622905007 394.2698018525461Q1054.4956336275345 393.5727578464906 1054.4956336275345 392.7401775059244L1054.4956336275345 392.7401775059244Q1054.4956336275345 390.7845818222688 1052.6755742783898 388.55791346959165L1052.6755742783898 388.55791346959165L1060.343058345 388.42237713508086Q1064.2542497123109 388.42237713508086 1064.2542497123109 390.37797281873645L1064.2542497123109 390.37797281873645Q1064.2542497123109 390.9201181567796 1063.9831770432893 391.55907516233043Q1063.6927420407665 392.1786698343797 1063.2861330372339 393.30168517746904L1063.2861330372339 393.30168517746904L1050.4489059257126 422.98414243533057Q1048.493310242057 427.5923778086972 1048.493310242057 430.8065251699529L1048.493310242057 430.8065251699529Q1048.493310242057 434.1368465322179 1050.5844422602236 435.25986187530725L1050.5844422602236 435.25986187530725ZM1075.8329251462324 435.8213695468519L1075.8329251462324 435.8213695468519Q1068.8624850856777 435.8213695468519 1065.0868300528773 431.6391055105192L1065.0868300528773 431.6391055105192Q1062.0275813596338 428.1538854802419 1062.0275813596338 423.2745774378537L1062.0275813596338 423.2745774378537Q1062.0275813596338 416.16860104278834 1066.4809180649881 416.16860104278834L1066.4809180649881 416.16860104278834Q1068.1654410796223 416.16860104278834 1069.559529091733 417.4077903868869L1069.559529091733 417.4077903868869Q1070.953617103844 418.8018783989978 1070.953617103844 420.6219377481426L1070.953617103844 420.6219377481426Q1070.953617103844 421.744953091232 1070.3921094322993 422.44199709728747L1070.3921094322993 422.44199709728747Q1068.5720500831544 424.6686654499646 1068.5720500831544 427.32130513967564L1068.5720500831544 427.32130513967564Q1068.5720500831544 429.9545824958851 1070.2565730977885 431.6391055105192L1070.2565730977885 431.6391055105192Q1072.0572701134317 433.43980252616245 1074.8454461376537 433.43980252616245L1074.8454461376537 433.43980252616245Q1077.7691584963864 433.43980252616245 1080.150725517076 431.5035691760084L1080.150725517076 431.5035691760084Q1083.3455105448297 428.5604944837742 1083.3455105448297 423.41011377236447L1083.3455105448297 423.41011377236447Q1083.3455105448297 418.9567770670102 1080.9833058576419 413.3804250185665L1080.9833058576419 413.3804250185665Q1080.0151891825649 411.98633700645564 1078.6791881709587 409.7403063202769Q1077.3625494928538 407.5136379675998 1075.6780264782199 404.4543892743564L1075.6780264782199 404.4543892743564Q1074.7099098031426 402.76986625972233 1074.3613878001152 401.0272562445837Q1074.0128657970872 399.28464622944506 1074.0128657970872 397.6194855483126L1074.0128657970872 397.6194855483126Q1074.0128657970872 391.77206083084735 1078.3306661679308 388.2868408005701L1078.3306661679308 388.2868408005701Q1082.8033652067866 384.6467221022805 1089.7738052673412 384.6467221022805L1089.7738052673412 384.6467221022805Q1091.7100386174952 384.6467221022805 1093.6075473006463 385.0726934393144Q1095.4856936502956 385.4986647763483 1097.0153179969175 386.60231778593607L1097.0153179969175 386.60231778593607Q1100.229465358173 388.98388480662555 1100.229465358173 392.46910483690283L1100.229465358173 392.46910483690283Q1100.229465358173 393.9987291835245 1099.6679576866286 395.2572808611247L1099.6679576866286 395.2572808611247Q1098.4094060090283 398.87803722591275 1094.2271419726958 398.87803722591275L1094.2271419726958 398.87803722591275Q1089.618906599329 398.87803722591275 1089.618906599329 394.1342655180353L1089.618906599329 394.1342655180353Q1089.618906599329 392.7401775059244 1090.0448779363628 391.77206083084735L1090.0448779363628 391.77206083084735Q1090.4708492733967 390.37797281873645 1093.104126629606 388.98388480662555L1093.104126629606 388.98388480662555Q1092.136009954529 387.16382545748075 1089.4833702648182 387.16382545748075L1089.4833702648182 387.16382545748075Q1087.12116557763 387.16382545748075 1085.9981502345408 388.2868408005701L1085.9981502345408 388.2868408005701Q1082.6484665387743 391.2105531593027 1082.6484665387743 395.663889864657L1082.6484665387743 395.663889864657Q1082.6484665387743 398.74250089140196 1084.3329895534084 402.36325725619L1084.3329895534084 402.36325725619Q1084.60406222243 402.92476492773466 1089.7738052673412 411.13439433238784L1089.7738052673412 411.13439433238784Q1093.2590252976186 416.7107463808315 1093.2590252976186 420.4864014136319L1093.2590252976186 420.4864014136319Q1093.2590252976186 426.4693624656079 1087.682673249175 431.0775978389745L1087.682673249175 431.0775978389745Q1082.1063212007311 435.8213695468519 1075.8329251462324 435.8213695468519ZM1148.8676471140427 381.3164007400155L1148.8676471140427 381.3164007400155Q1144.1432377396668 381.3164007400155 1144.1432377396668 376.7081653666489L1144.1432377396668 376.7081653666489Q1144.1432377396668 372.0999299932823 1148.5965744450211 372.0999299932823L1148.5965744450211 372.0999299932823Q1153.3403461528985 372.0999299932823 1153.3403461528985 376.7081653666489L1153.3403461528985 376.7081653666489Q1153.3403461528985 381.3164007400155 1148.8676471140427 381.3164007400155ZM1136.8823626765893 435.25986187530725L1129.9119226160346 435.25986187530725Q1125.8651949142127 435.25986187530725 1125.8651949142127 431.2131341734853L1125.8651949142127 431.2131341734853Q1125.8651949142127 428.71539315178654 1127.5497179288468 424.3782304474415L1127.5497179288468 424.3782304474415Q1131.170474293635 415.47155703673286 1134.3846216548905 407.9396093046337Q1137.5794066826447 400.4076615725344 1140.3675827068664 394.2698018525461L1140.3675827068664 394.2698018525461Q1140.7935540439003 393.5727578464906 1140.7935540439003 392.7401775059244L1140.7935540439003 392.7401775059244Q1140.7935540439003 390.7845818222688 1138.9734946947556 388.55791346959165L1138.9734946947556 388.55791346959165L1146.6409787613657 388.42237713508086Q1150.5521701286766 388.42237713508086 1150.5521701286766 390.37797281873645L1150.5521701286766 390.37797281873645Q1150.5521701286766 390.9201181567796 1150.2617351261538 391.55907516233043Q1149.9906624571322 392.1786698343797 1149.5646911200984 393.30168517746904L1149.5646911200984 393.30168517746904L1136.7468263420783 422.98414243533057Q1134.7912306584228 427.5923778086972 1134.7912306584228 430.8065251699529L1134.7912306584228 430.8065251699529Q1134.7912306584228 434.1368465322179 1136.8823626765893 435.25986187530725L1136.8823626765893 435.25986187530725ZM1147.6284577699441 436.22797855038425L1147.6284577699441 436.22797855038425Q1150.416633794166 429.412437157842 1154.5988978304988 419.3633860705425Q1158.7811618668316 409.3336973167446 1164.7641229188075 396.2253975362017L1164.7641229188075 396.2253975362017Q1166.0226745964076 393.4372215119798 1167.1456899394968 391.61716216283503Q1168.2493429490846 389.81646514719176 1169.2368219576633 388.82898613861323L1169.2368219576633 388.82898613861323Q1171.1730553078173 386.8927527884592 1174.2516663345623 386.8927527884592L1174.2516663345623 386.8927527884592Q1174.5227390035839 386.8927527884592 1175.2197830096393 386.8927527884592Q1175.9168270156947 386.8927527884592 1177.175378693295 387.16382545748075L1177.175378693295 387.16382545748075Q1179.1309743769505 387.29936179199154 1180.0990910520275 387.16382545748075L1180.0990910520275 387.16382545748075Q1174.9487103406177 390.22307415072413 1164.6285865842967 414.21300535913275L1164.6285865842967 414.21300535913275Q1166.1582109309184 412.25740967547716 1168.539777951608 409.2562479827384Q1170.9019826387957 406.2550862899996 1174.6582753380947 402.63432992521155L1174.6582753380947 402.63432992521155Q1178.5694667054058 398.87803722591275 1181.0865700606062 396.7869052077464Q1183.5843110823048 394.69577318958 1184.5717900908833 393.9987291835245L1184.5717900908833 393.9987291835245Q1190.69028747737 389.3904938101579 1193.6333621696044 389.3904938101579L1193.6333621696044 389.3904938101579Q1197.6607275379247 389.3904938101579 1197.6607275379247 393.30168517746904L1197.6607275379247 393.30168517746904Q1197.6607275379247 394.5602368550692 1197.1185821998815 395.663889864657L1197.1185821998815 395.663889864657Q1195.4340591852474 398.87803722591275 1192.8588688295426 403.7573452683009Q1190.2836784738379 408.6366533106891 1186.9339947780713 415.1811220342098L1186.9339947780713 415.1811220342098Q1193.6333621696044 406.8165939615443 1198.5126702119924 402.49879359070076L1198.5126702119924 402.49879359070076Q1201.0104112336912 400.27212523802365 1204.1471092609409 398.18099321985727Q1207.2838072881905 396.0898612016909 1210.9045636529784 393.9987291835245L1210.9045636529784 393.9987291835245Q1218.8624827221115 389.3904938101579 1222.9092104239335 389.3904938101579L1222.9092104239335 389.3904938101579Q1223.8773270990105 389.3904938101579 1224.3032984360443 389.52603014466865L1224.3032984360443 389.52603014466865Q1222.0572677498658 393.4372215119798 1220.1791214002164 397.0579778767679Q1218.3009750505666 400.67873424155596 1216.6358143694342 403.8928816028117L1216.6358143694342 403.8928816028117Q1212.7246230021233 411.5603656694217 1210.497954649446 417.0011813833546Q1208.2712862967687 422.44199709728747 1207.5742422907133 425.50124579053085L1207.5742422907133 425.50124579053085Q1207.419343622701 426.4693624656079 1207.3612566221964 427.32130513967564Q1207.2838072881905 428.1538854802419 1207.2838072881905 428.85092948629733L1207.2838072881905 428.85092948629733Q1207.2838072881905 432.4716858510854 1209.9364469779014 432.4716858510854L1209.9364469779014 432.4716858510854Q1214.254247348745 432.4716858510854 1220.2565707342224 423.68118644138605L1220.2565707342224 423.68118644138605L1222.212166417878 425.07527445349695Q1215.0868276893111 435.8213695468519 1207.980851294246 435.8213695468519L1207.980851294246 435.8213695468519Q1199.2097142180478 435.8213695468519 1199.2097142180478 426.75979746813096L1199.2097142180478 426.75979746813096Q1199.2097142180478 419.22784973603177 1208.1163876287565 404.8609982778887L1208.1163876287565 404.8609982778887Q1209.5104756408673 402.63432992521155 1209.5104756408673 401.10470557858986L1209.5104756408673 401.10470557858986Q1209.5104756408673 399.4395448974574 1208.1163876287565 399.4395448974574L1208.1163876287565 399.4395448974574Q1206.5867632821348 399.4395448974574 1204.0890222604362 401.0272562445837Q1201.5719189052359 402.63432992521155 1198.35777154398 405.55804228394413L1198.35777154398 405.55804228394413Q1195.7244941877707 408.07514563914447 1192.8588688295426 411.5603656694217Q1189.9932434713146 415.045585699699 1186.7984584435605 419.4989224050533L1186.7984584435605 419.4989224050533Q1179.8280183830059 429.6835098268636 1178.5694667054058 435.25986187530725L1178.5694667054058 435.25986187530725Q1176.207262018218 435.25986187530725 1174.9487103406177 433.0331935226301L1174.9487103406177 433.0331935226301Q1173.9612313320392 431.0775978389745 1173.9612313320392 429.1220021553189L1173.9612313320392 429.1220021553189Q1173.9612313320392 426.3338261310971 1175.9168270156947 421.744953091232Q1177.8724226993504 417.1367177178654 1181.3576427296275 410.5922489943447L1181.3576427296275 410.5922489943447Q1185.4043704314495 403.331373931267 1185.4043704314495 400.13658890351286L1185.4043704314495 400.13658890351286Q1185.4043704314495 398.74250089140196 1184.2813550883602 398.74250089140196L1184.2813550883602 398.74250089140196Q1182.0546867356832 398.74250089140196 1174.387202669073 405.7129409519565L1174.387202669073 405.7129409519565Q1172.4316069854176 407.5136379675998 1170.2823879667465 410.243726991317Q1168.113806614574 412.95445368153264 1165.751601927386 416.5752100463207L1165.751601927386 416.5752100463207Q1160.3107862134532 424.6686654499646 1157.3870738547207 432.742758520107L1157.3870738547207 432.742758520107Q1156.5351311806528 434.83389053827335 1153.0499111503755 435.25986187530725L1153.0499111503755 435.25986187530725Q1148.5965744450211 435.6858332123411 1147.6284577699441 436.22797855038425ZM1220.8180784057672 480.4321859344011L1220.8180784057672 480.4321859344011Q1219.8305993971885 479.7351419283457 1218.7269463876007 478.6895759192625Q1217.6039310445115 477.6440099101793 1216.0743066978898 476.24992189806835L1216.0743066978898 476.24992189806835Q1213.1505943391571 473.32620953933576 1213.1505943391571 469.2794818375138L1213.1505943391571 469.2794818375138Q1213.1505943391571 466.3557694787812 1214.8157550202895 461.18602643386987L1214.8157550202895 461.18602643386987Q1216.2098430324004 457.13929873204796 1219.34654105965 449.06520566190557Q1222.4832390868996 440.97175025826164 1227.6336197983094 428.85092948629733L1227.6336197983094 428.85092948629733Q1229.1826064784327 425.23017312150927 1231.1188398285867 420.2734157451149Q1233.074435512242 415.3166583687206 1235.3011038649192 408.9077259797107L1235.3011038649192 408.9077259797107Q1235.862611536464 407.378101633089 1236.4241192080087 405.3644189489288Q1236.9856268795534 403.331373931267 1237.547134551098 400.67873424155596L1237.547134551098 400.67873424155596Q1237.8182072201196 399.14910989493427 1238.0311928886365 397.8324712168295Q1238.2441785571534 396.49647020522326 1238.2441785571534 395.5283535301462L1238.2441785571534 395.5283535301462Q1238.2441785571534 390.64904548775803 1235.1655675304087 388.55791346959165L1235.1655675304087 388.55791346959165L1242.0004712564523 387.43489812650233Q1243.1234865995416 387.29936179199154 1243.820530605597 387.29936179199154Q1244.5175746116524 387.29936179199154 1244.6531109461635 387.29936179199154L1244.6531109461635 387.29936179199154Q1247.0153156333513 387.29936179199154 1247.0153156333513 392.1786698343797L1247.0153156333513 392.1786698343797Q1247.0153156333513 399.0135735604235 1243.1234865995416 409.89520498828927L1243.1234865995416 409.89520498828927Q1257.606512058694 386.1957087824037 1266.2614751338824 386.1957087824037L1266.2614751338824 386.1957087824037Q1270.4437391702154 386.1957087824037 1272.9414801919143 389.68092881268103L1272.9414801919143 389.68092881268103Q1275.0326122100805 392.6046411714136 1275.0326122100805 397.0579778767679L1275.0326122100805 397.0579778767679Q1275.0326122100805 403.19583759675623 1271.7022908478152 410.99885799787705L1271.7022908478152 410.99885799787705Q1268.0621721495258 418.9567770670102 1263.3377627751497 424.6686654499646L1263.3377627751497 424.6686654499646Q1254.2761906964288 435.39539820981804 1242.9685879315293 435.39539820981804L1242.9685879315293 435.39539820981804Q1237.8182072201196 435.39539820981804 1233.500406849276 432.742758520107L1233.500406849276 432.742758520107Q1230.8477671595651 439.44212591164 1228.6791858073925 446.33511663818837Q1226.5299667887216 453.2474696982383 1224.574371105066 460.48898242781445L1224.574371105066 460.48898242781445Q1220.527643403244 474.99137022046824 1220.8180784057672 480.4321859344011ZM1239.0767588977196 432.3361495165746L1239.0767588977196 432.3361495165746Q1247.7123596394067 432.3361495165746 1258.3035560647495 417.56268905489924L1258.3035560647495 417.56268905489924Q1268.6236798210703 403.19583759675623 1268.6236798210703 394.5602368550692L1268.6236798210703 394.5602368550692Q1268.6236798210703 390.08753781621334 1264.8673871217716 390.08753781621334L1264.8673871217716 390.08753781621334Q1259.5621077423493 390.08753781621334 1253.1531753533395 399.0135735604235L1253.1531753533395 399.0135735604235Q1249.6679553230624 404.0284179373225 1245.001632949191 411.98633700645564Q1240.33531057532 419.9248937420872 1234.6040598588638 430.6516265019406L1234.6040598588638 430.6516265019406Q1236.288582873498 432.3361495165746 1239.0767588977196 432.3361495165746ZM1286.1853163069677 435.25986187530725L1286.1853163069677 435.25986187530725Q1276.0200912186588 435.25986187530725 1276.0200912186588 422.8486061008198L1276.0200912186588 422.8486061008198Q1276.0200912186588 416.7107463808315 1278.9438035773915 409.89520498828927L1278.9438035773915 409.89520498828927Q1283.126067613724 399.98169023550054 1290.793551680334 393.1661488429583L1290.793551680334 393.1661488429583Q1298.3254994124336 386.4667814514253 1305.005504470465 386.4667814514253L1305.005504470465 386.4667814514253Q1315.3256282267862 386.4667814514253 1315.3256282267862 398.5876022233896L1315.3256282267862 398.5876022233896Q1315.3256282267862 404.8609982778887 1312.2663795335425 411.83143833844326L1312.2663795335425 411.83143833844326Q1308.6456231687544 420.19596641110877 1301.8107194427107 427.03087013715253L1301.8107194427107 427.03087013715253Q1293.3106550355346 435.25986187530725 1286.1853163069677 435.25986187530725ZM1288.4313469931462 432.2006131820639L1288.4313469931462 432.2006131820639Q1291.6261320209005 432.2006131820639 1295.2468883856886 429.5479734923528L1295.2468883856886 429.5479734923528Q1299.855123759055 426.1982897965863 1305.7025484765204 415.60709337124365L1305.7025484765204 415.60709337124365Q1312.130843199032 404.1639542718333 1312.130843199032 397.19351421127874L1312.130843199032 397.19351421127874Q1312.130843199032 390.9201181567796 1306.8255638196097 390.9201181567796L1306.8255638196097 390.9201181567796Q1302.6432997832771 390.9201181567796 1297.338020403855 396.2253975362017L1297.338020403855 396.2253975362017Q1292.1876396924454 401.37577824761144 1288.5668833276573 409.3336973167446L1288.5668833276573 409.3336973167446Q1283.6875752852688 419.7893574075764 1283.6875752852688 426.06275346207553L1283.6875752852688 426.06275346207553Q1283.6875752852688 432.2006131820639 1288.4313469931462 432.2006131820639ZM1327.0398399952182 435.8213695468519L1327.0398399952182 435.8213695468519Q1320.0693999346636 435.8213695468519 1316.3131072353644 431.6391055105192L1316.3131072353644 431.6391055105192Q1313.23449620862 428.1538854802419 1313.23449620862 423.2745774378537L1313.23449620862 423.2745774378537Q1313.23449620862 416.16860104278834 1317.7071952474753 416.16860104278834L1317.7071952474753 416.16860104278834Q1319.3723559286077 416.16860104278834 1320.766443940719 417.4077903868869L1320.766443940719 417.4077903868869Q1322.1605319528298 418.8018783989978 1322.1605319528298 420.6219377481426L1322.1605319528298 420.6219377481426Q1322.1605319528298 421.744953091232 1321.599024281285 422.44199709728747L1321.599024281285 422.44199709728747Q1319.798327265642 424.6686654499646 1319.798327265642 427.32130513967564L1319.798327265642 427.32130513967564Q1319.798327265642 429.9545824958851 1321.4634879467744 431.6391055105192L1321.4634879467744 431.6391055105192Q1323.283547295919 433.43980252616245 1326.0717233201408 433.43980252616245L1326.0717233201408 433.43980252616245Q1328.9954356788735 433.43980252616245 1331.3576403660613 431.5035691760084L1331.3576403660613 431.5035691760084Q1334.5717877273173 428.5604944837742 1334.5717877273173 423.41011377236447L1334.5717877273173 423.41011377236447Q1334.5717877273173 418.9567770670102 1332.1902207066278 413.3804250185665L1332.1902207066278 413.3804250185665Q1331.2221040315508 411.98633700645564 1329.9054653534458 409.7403063202769Q1328.5694643418396 407.5136379675998 1326.9043036607072 404.4543892743564L1326.9043036607072 404.4543892743564Q1325.9168246521285 402.76986625972233 1325.5683026491006 401.0272562445837Q1325.219780646073 399.28464622944506 1325.219780646073 397.6194855483126L1325.219780646073 397.6194855483126Q1325.219780646073 391.77206083084735 1329.5569433504184 388.2868408005701L1329.5569433504184 388.2868408005701Q1334.0102800557725 384.6467221022805 1340.9807201163271 384.6467221022805L1340.9807201163271 384.6467221022805Q1342.9363157999828 384.6467221022805 1344.8144621496322 385.0726934393144Q1346.6926084992815 385.4986647763483 1348.2222328459034 386.60231778593607L1348.2222328459034 386.60231778593607Q1351.436380207159 388.98388480662555 1351.436380207159 392.46910483690283L1351.436380207159 392.46910483690283Q1351.436380207159 393.9987291835245 1350.8748725356145 395.2572808611247L1350.8748725356145 395.2572808611247Q1349.6163208580142 398.87803722591275 1345.4340568216812 398.87803722591275L1345.4340568216812 398.87803722591275Q1340.8451837818166 398.87803722591275 1340.8451837818166 394.1342655180353L1340.8451837818166 394.1342655180353Q1340.8451837818166 392.7401775059244 1341.2517927853487 391.77206083084735L1341.2517927853487 391.77206083084735Q1341.6777641223825 390.37797281873645 1344.3304038120937 388.98388480662555L1344.3304038120937 388.98388480662555Q1343.342924803515 387.16382545748075 1340.7096474473055 387.16382545748075L1340.7096474473055 387.16382545748075Q1338.328080426616 387.16382545748075 1337.2244274170284 388.2868408005701L1337.2244274170284 388.2868408005701Q1333.874743721262 391.2105531593027 1333.874743721262 395.663889864657L1333.874743721262 395.663889864657Q1333.874743721262 398.74250089140196 1335.5399044023943 402.36325725619L1335.5399044023943 402.36325725619Q1335.8303394049171 402.92476492773466 1340.9807201163271 411.13439433238784L1340.9807201163271 411.13439433238784Q1344.4659401466042 416.7107463808315 1344.4659401466042 420.4864014136319L1344.4659401466042 420.4864014136319Q1344.4659401466042 426.4693624656079 1338.8895880981609 431.0775978389745L1338.8895880981609 431.0775978389745Q1333.313236049717 435.8213695468519 1327.0398399952182 435.8213695468519ZM1361.75650396348 435.8213695468519L1361.75650396348 435.8213695468519Q1354.7860639029254 435.8213695468519 1351.010408870125 431.6391055105192L1351.010408870125 431.6391055105192Q1347.9511601768813 428.1538854802419 1347.9511601768813 423.2745774378537L1347.9511601768813 423.2745774378537Q1347.9511601768813 416.16860104278834 1352.404496882236 416.16860104278834L1352.404496882236 416.16860104278834Q1354.08901989687 416.16860104278834 1355.4831079089809 417.4077903868869L1355.4831079089809 417.4077903868869Q1356.8771959210917 418.8018783989978 1356.8771959210917 420.6219377481426L1356.8771959210917 420.6219377481426Q1356.8771959210917 421.744953091232 1356.3156882495473 422.44199709728747L1356.3156882495473 422.44199709728747Q1354.4956289004022 424.6686654499646 1354.4956289004022 427.32130513967564L1354.4956289004022 427.32130513967564Q1354.4956289004022 429.9545824958851 1356.1801519150363 431.6391055105192L1356.1801519150363 431.6391055105192Q1357.9808489306797 433.43980252616245 1360.7690249549014 433.43980252616245L1360.7690249549014 433.43980252616245Q1363.7120996471358 433.43980252616245 1366.0743043343236 431.5035691760084L1366.0743043343236 431.5035691760084Q1369.2884516955792 428.5604944837742 1369.2884516955792 423.41011377236447L1369.2884516955792 423.41011377236447Q1369.2884516955792 418.9567770670102 1366.9068846748896 413.3804250185665L1366.9068846748896 413.3804250185665Q1365.9387679998126 411.98633700645564 1364.6027669882064 409.7403063202769Q1363.2861283101015 407.5136379675998 1361.620967628969 404.4543892743564L1361.620967628969 404.4543892743564Q1360.6334886203908 402.76986625972233 1360.284966617363 401.0272562445837Q1359.936444614335 399.28464622944506 1359.936444614335 397.6194855483126L1359.936444614335 397.6194855483126Q1359.936444614335 391.77206083084735 1364.2542449851785 388.2868408005701L1364.2542449851785 388.2868408005701Q1368.7269440240343 384.6467221022805 1375.697384084589 384.6467221022805L1375.697384084589 384.6467221022805Q1377.6529797682447 384.6467221022805 1379.531126117894 385.0726934393144Q1381.4092724675438 385.4986647763483 1382.9388968141652 386.60231778593607L1382.9388968141652 386.60231778593607Q1386.1530441754212 388.98388480662555 1386.1530441754212 392.46910483690283L1386.1530441754212 392.46910483690283Q1386.1530441754212 393.9987291835245 1385.5915365038763 395.2572808611247L1385.5915365038763 395.2572808611247Q1384.332984826276 398.87803722591275 1380.1507207899435 398.87803722591275L1380.1507207899435 398.87803722591275Q1375.5618477500784 398.87803722591275 1375.5618477500784 394.1342655180353L1375.5618477500784 394.1342655180353Q1375.5618477500784 392.7401775059244 1375.9684567536106 391.77206083084735L1375.9684567536106 391.77206083084735Q1376.3944280906444 390.37797281873645 1379.0470677803555 388.98388480662555L1379.0470677803555 388.98388480662555Q1378.0595887717773 387.16382545748075 1375.4069490820661 387.16382545748075L1375.4069490820661 387.16382545748075Q1373.0447443948779 387.16382545748075 1371.9217290517886 388.2868408005701L1371.9217290517886 388.2868408005701Q1368.5914076895237 391.2105531593027 1368.5914076895237 395.663889864657L1368.5914076895237 395.663889864657Q1368.5914076895237 398.74250089140196 1370.2565683706562 402.36325725619L1370.2565683706562 402.36325725619Q1370.5276410396777 402.92476492773466 1375.697384084589 411.13439433238784L1375.697384084589 411.13439433238784Q1379.1826041148665 416.7107463808315 1379.1826041148665 420.4864014136319L1379.1826041148665 420.4864014136319Q1379.1826041148665 426.4693624656079 1373.6062520664227 431.0775978389745L1373.6062520664227 431.0775978389745Q1368.029900017979 435.8213695468519 1361.75650396348 435.8213695468519ZM1407.1999006915953 381.3164007400155L1407.1999006915953 381.3164007400155Q1402.456128983718 381.3164007400155 1402.456128983718 376.7081653666489L1402.456128983718 376.7081653666489Q1402.456128983718 372.0999299932823 1406.9288280225737 372.0999299932823L1406.9288280225737 372.0999299932823Q1411.6532373969499 372.0999299932823 1411.6532373969499 376.7081653666489L1411.6532373969499 376.7081653666489Q1411.6532373969499 381.3164007400155 1407.1999006915953 381.3164007400155ZM1395.2146162541417 435.25986187530725L1388.2441761935875 435.25986187530725Q1384.1974484917655 435.25986187530725 1384.1974484917655 431.2131341734853L1384.1974484917655 431.2131341734853Q1384.1974484917655 428.71539315178654 1385.862609172898 424.3782304474415L1385.862609172898 424.3782304474415Q1389.5027278711873 415.47155703673286 1392.6975128989416 407.9396093046337Q1395.9116602601976 400.4076615725344 1398.6998362844192 394.2698018525461L1398.6998362844192 394.2698018525461Q1399.1064452879514 393.5727578464906 1399.1064452879514 392.7401775059244L1399.1064452879514 392.7401775059244Q1399.1064452879514 390.7845818222688 1397.3057482723084 388.55791346959165L1397.3057482723084 388.55791346959165L1404.9732323389185 388.42237713508086Q1408.8650613727277 388.42237713508086 1408.8650613727277 390.37797281873645L1408.8650613727277 390.37797281873645Q1408.8650613727277 390.9201181567796 1408.5939887037061 391.55907516233043Q1408.3229160346846 392.1786698343797 1407.8969446976512 393.30168517746904L1407.8969446976512 393.30168517746904L1395.079079919631 422.98414243533057Q1393.1234842359754 427.5923778086972 1393.1234842359754 430.8065251699529L1393.1234842359754 430.8065251699529Q1393.1234842359754 434.1368465322179 1395.2146162541417 435.25986187530725L1395.2146162541417 435.25986187530725ZM1421.9733611532706 435.53093454432883L1421.9733611532706 435.53093454432883Q1409.9880767158174 435.53093454432883 1409.9880767158174 424.6686654499646L1409.9880767158174 424.6686654499646Q1409.9880767158174 422.28709842927515 1411.1691790594114 418.1048343929424Q1412.3502814030053 413.92257035660964 1414.2477900861563 408.69474031119375Q1416.1259364358057 403.4669102657778 1418.3526047884825 398.1035438858511Q1420.5792731411598 392.7401775059244 1422.5348688248155 387.99640579804696L1422.5348688248155 387.99640579804696L1436.3402126114138 355.2353375134405Q1436.6112852804354 354.13168450385274 1436.6112852804354 353.70571316681884L1436.6112852804354 353.70571316681884Q1436.6112852804354 351.61458114865246 1434.946124599303 349.3879127959753L1434.946124599303 349.3879127959753L1442.613608665913 349.3879127959753Q1446.3699013652117 349.3879127959753 1446.3699013652117 351.18860981161856L1446.3699013652117 351.18860981161856Q1446.3699013652117 352.04055248568636 1445.5373210246457 354.13168450385274L1445.5373210246457 354.13168450385274Q1441.0839843192912 364.72288092919536 1434.384616927758 380.6774437344647Q1427.6852495362255 396.6513688732356 1418.9141124600274 417.9692980584316L1418.9141124600274 417.9692980584316Q1416.958516776372 422.98414243533057 1416.958516776372 426.4693624656079L1416.958516776372 426.4693624656079Q1416.958516776372 433.0331935226301 1421.7022884842495 433.0331935226301L1421.7022884842495 433.0331935226301Q1426.5815965266374 433.0331935226301 1434.2490805932475 423.97162144390916L1434.2490805932475 423.97162144390916Q1437.4438656210018 420.060430076598 1440.1739546447188 415.74262970575444Q1442.8846813349346 411.42482933491095 1444.7047406840793 406.6810576270335L1444.7047406840793 406.6810576270335Q1446.9314090367566 401.24024191310065 1446.9314090367566 396.6513688732356L1446.9314090367566 396.6513688732356Q1446.9314090367566 392.6046411714136 1445.0532626871072 390.99756749078574Q1443.1751163374574 389.3904938101579 1439.399461304657 389.3904938101579L1439.399461304657 389.3904938101579L1438.7024172986016 389.3904938101579Q1436.4757489459248 389.3904938101579 1436.4757489459248 387.99640579804696L1436.4757489459248 387.99640579804696Q1436.4757489459248 386.4667814514253 1439.2639249701465 386.4667814514253L1439.2639249701465 386.4667814514253Q1439.6898963071803 386.4667814514253 1440.2320416452235 386.4667814514253Q1440.7935493167683 386.4667814514253 1441.3550569883128 386.60231778593607L1441.3550569883128 386.60231778593607Q1453.0692687567448 388.2868408005701 1453.0692687567448 401.24024191310065L1453.0692687567448 401.24024191310065Q1453.0692687567448 411.42482933491095 1446.2343650307012 421.3189817541981L1446.2343650307012 421.3189817541981Q1436.4757489459248 435.53093454432883 1421.9733611532706 435.53093454432883ZM1465.7515972002539 435.25986187530725L1458.7811571396992 435.25986187530725Q1454.7344294378772 435.25986187530725 1454.7344294378772 431.2131341734853L1454.7344294378772 431.2131341734853Q1454.7344294378772 428.71539315178654 1456.4189524525113 424.3782304474415L1456.4189524525113 424.3782304474415L1483.4487700206619 355.2353375134405Q1483.7392050231847 354.8287285099082 1483.7392050231847 354.40275717287426Q1483.7392050231847 353.9767858358404 1483.7392050231847 353.70571316681884L1483.7392050231847 353.70571316681884Q1483.7392050231847 351.61458114865246 1482.054682008551 349.3879127959753L1482.054682008551 349.3879127959753L1489.58662974065 349.3879127959753Q1493.497821107961 349.3879127959753 1493.497821107961 351.18860981161856L1493.497821107961 351.18860981161856Q1493.497821107961 352.04055248568636 1492.665240767395 354.13168450385274L1492.665240767395 354.13168450385274L1465.6160608657428 422.98414243533057Q1463.7960015165982 427.45684147418643 1463.7960015165982 430.9420615044637L1463.7960015165982 430.9420615044637Q1463.7960015165982 434.1368465322179 1465.7515972002539 435.25986187530725L1465.7515972002539 435.25986187530725ZM1492.1037330958502 435.8213695468519L1492.1037330958502 435.8213695468519Q1486.6629173819174 435.8213695468519 1482.7517260146064 432.3361495165746L1482.7517260146064 432.3361495165746Q1480.6605939964397 430.380553832919 1479.769926655369 427.80536347721414Q1478.8598969807967 425.23017312150927 1478.8598969807967 421.8804894257428L1478.8598969807967 421.8804894257428Q1478.8598969807967 409.04326231422147 1489.451093406139 396.3609338707124L1489.451093406139 396.3609338707124Q1498.3771291503494 385.63420111085907 1508.0002089006148 385.63420111085907L1508.0002089006148 385.63420111085907Q1511.194993928369 385.63420111085907 1513.4216622810463 387.29936179199154L1513.4216622810463 387.29936179199154Q1515.8032293017359 389.25495747564713 1515.8032293017359 392.3142061688905L1515.8032293017359 392.3142061688905Q1515.8032293017359 399.98169023550054 1505.6186418799257 407.6491743021105L1505.6186418799257 407.6491743021105Q1502.4238568521714 410.03074132280005 1497.1185774727492 411.83143833844326L1497.1185774727492 411.83143833844326Q1491.2711527552842 413.78703402209885 1488.618513065573 413.78703402209885L1488.618513065573 413.78703402209885Q1486.6629173819174 418.5308057299763 1486.6629173819174 423.83608510939837L1486.6629173819174 423.83608510939837Q1486.6629173819174 432.8976571881193 1493.3622847734505 432.8976571881193L1493.3622847734505 432.8976571881193Q1502.1334218496481 432.8976571881193 1509.8009059162582 421.4545180887089L1509.8009059162582 421.4545180887089L1510.362413587803 420.6219377481426L1512.724618274991 421.59005442321967L1512.3180092714588 422.44199709728747Q1508.8327892411812 429.412437157842 1503.527509861759 432.6072221855962Q1498.2415928158384 435.8213695468519 1492.1037330958502 435.8213695468519ZM1489.451093406139 411.42482933491095L1489.451093406139 411.42482933491095Q1491.8132980933274 411.42482933491095 1495.99556212966 409.89520498828927L1495.99556212966 409.89520498828927Q1498.3771291503494 408.9077259797107 1500.5263481690204 407.8040729701229Q1502.694929521193 406.6810576270335 1504.3600902023254 405.2869696149226L1504.3600902023254 405.2869696149226Q1512.0275742689355 398.87803722591275 1512.0275742689355 391.77206083084735L1512.0275742689355 391.77206083084735Q1512.0275742689355 388.69344980410244 1509.8009059162582 388.69344980410244L1509.8009059162582 388.69344980410244Q1505.9090768824485 388.69344980410244 1497.9511578133156 398.31652955436806L1497.9511578133156 398.31652955436806Q1493.9044301114936 403.19583759675623 1489.451093406139 411.42482933491095Z " fill="#ffffff" transform="matrix(0.5772517162292948,0,0,0.5772517162292948,0,65.96356169296513)"/></g></svg>